<?xml version="1.0" encoding="utf-8"?>
<!-- Generator: Adobe Illustrator 24.2.1, SVG Export Plug-In . SVG Version: 6.00 Build 0)  -->
<svg version="1.1" id="Layer_1" xmlns="http://www.w3.org/2000/svg" xmlns:xlink="http://www.w3.org/1999/xlink" x="0px" y="0px"
	 viewBox="0 0 765.4 506.7" style="enable-background:new 0 0 765.4 506.7;" xml:space="preserve">
<style type="text/css">
	.st0{fill:#FFFFFF;}
	.st1{opacity:0.4;fill:#BCD631;enable-background:new    ;}
	.st2{fill:none;stroke:#000000;stroke-width:1.2767;stroke-miterlimit:10;}
	.st3{fill:none;stroke:#000000;stroke-width:1.2767;stroke-miterlimit:10;stroke-dasharray:3.8217,3.8217;}
	.st4{fill:none;stroke:#000000;stroke-width:1.2767;stroke-miterlimit:10;stroke-dasharray:3.8376,3.8376;}
	.st5{fill:none;stroke:#A7A9AC;stroke-width:14;stroke-miterlimit:10;}
	.st6{fill:#A7A9AC;}
	.st7{font-family:'Helvetica-Bold';}
	.st8{font-size:14px;}
	.st9{fill:none;stroke:#000000;stroke-miterlimit:10;}
	.st10{fill:none;stroke:#000000;stroke-width:0.3819;stroke-miterlimit:10;}
	.st11{font-family:'Helvetica';}
	.st12{font-size:12px;}
	.st13{fill:none;stroke:#000000;stroke-width:8.410000e-02;stroke-miterlimit:10;}
	.st14{fill:#A97C50;stroke:#000000;stroke-width:0.5;stroke-miterlimit:10;}
	.st15{fill:#BE1E2D;stroke:#000000;stroke-width:0.5;stroke-miterlimit:10;}
	.st16{fill:#FBB040;stroke:#000000;stroke-width:0.5;stroke-miterlimit:10;}
	.st17{font-size:10px;}
	.st18{opacity:0.2;}
	.st19{fill:none;stroke:#000000;stroke-width:1.6973;stroke-miterlimit:10;}
	.st20{fill:#1C75BC;}
	.st21{fill:#006838;}
	.st22{fill:none;stroke:#000000;stroke-width:0.5658;stroke-miterlimit:10;}
	.st23{fill:none;stroke:#000000;stroke-width:0.7228;stroke-miterlimit:9.9996;stroke-dasharray:3.6132,3.6132;}
	.st24{fill:none;stroke:#000000;stroke-width:0.7228;stroke-miterlimit:10;stroke-dasharray:3.6133,3.6133;}
	.st25{fill:#FBB040;}
	.st26{fill:#A97C50;}
	.st27{fill:#BE1E2D;}
	.st28{fill:#00AEEF;stroke:#000000;stroke-miterlimit:10;}
	.st29{fill:#1584A8;stroke:#000000;stroke-miterlimit:10;}
	.st30{fill:#B3E4FA;fill-opacity:0.4;stroke:#000000;stroke-miterlimit:10;}
	.st31{fill:none;stroke:#000000;stroke-width:1.3518;stroke-miterlimit:10;stroke-dasharray:4.0553;}
	.st32{fill:#BCBEC0;}
	.st33{font-size:16px;}
	.st34{opacity:0.2;fill:#8DC63F;enable-background:new    ;}
	.st35{opacity:0.2;fill:#009444;enable-background:new    ;}
	.st36{opacity:0.2;fill:#F9ED32;enable-background:new    ;}
	.st37{font-size:6.996px;}
	.st38{fill:none;stroke:#2BB673;stroke-miterlimit:10;}
	.st39{fill:none;stroke:#2BB673;stroke-miterlimit:10;stroke-dasharray:11.4906,11.4906;}
	.st40{fill:none;stroke:#1C75BC;stroke-miterlimit:10;}
	.st41{opacity:0.4;fill:#C2B59B;enable-background:new    ;}
	.st42{fill:#FBB040;stroke:#000000;stroke-miterlimit:10;}
	.st43{fill:#D0DCE6;stroke:#000000;stroke-miterlimit:10;}
	.st44{fill:none;stroke:#000000;stroke-width:3;stroke-miterlimit:10;}
</style>
<rect y="0" class="st0" width="765.4" height="506.8"/>
<rect x="25.8" y="83.8" class="st1" width="130.2" height="136.8"/>
<g>
	<g>
		<polyline class="st2" points="743.6,486.2 743.6,488.2 741.7,488.2 		"/>
		<line class="st3" x1="737.9" y1="488.2" x2="21.3" y2="488.2"/>
		<polyline class="st2" points="19.4,488.2 17.5,488.2 17.5,486.2 		"/>
		<line class="st4" x1="17.5" y1="482.4" x2="17.5" y2="16.1"/>
		<polyline class="st2" points="17.5,14.2 17.5,12.3 19.4,12.3 		"/>
		<line class="st3" x1="23.2" y1="12.3" x2="739.8" y2="12.3"/>
		<polyline class="st2" points="741.7,12.3 743.6,12.3 743.6,14.2 		"/>
		<line class="st4" x1="743.6" y1="18.1" x2="743.6" y2="484.3"/>
	</g>
</g>
<g>
	<g>
		<g>
			<line class="st5" x1="160.6" y1="355.4" x2="210" y2="355.4"/>
			<g>
				<polygon class="st6" points="207.4,337.3 218.7,355.4 207.4,373.4 207.2,373.4 207.2,337.3 				"/>
			</g>
		</g>
	</g>
	<text transform="matrix(1 0 0 1 172.9193 391.4071)" class="st7 st8">PCR,</text>
	<text transform="matrix(1 0 0 1 149.9694 408.2071)" class="st7 st8">Sequencing</text>
</g>
<g>
	<g>
		<g>
			<line class="st5" x1="522.3" y1="355.4" x2="571.7" y2="355.4"/>
			<g>
				<polygon class="st6" points="569.1,337.3 580.4,355.4 569.1,373.4 568.9,373.4 568.9,337.3 				"/>
			</g>
		</g>
	</g>
	<text transform="matrix(1 0 0 1 522.1792 387.5557)" class="st7 st8">mapping</text>
</g>
<g>
	<g>
		<line class="st9" x1="610.7" y1="444.9" x2="707.3" y2="444.9"/>
		<g>
			<g>
				<line class="st9" x1="610.7" y1="444.9" x2="610.7" y2="441.9"/>
				<line class="st10" x1="733.2" y1="359.7" x2="733.2" y2="359.1"/>
			</g>
		</g>
	</g>
	<g>
		<g>
			<text transform="matrix(1 0 0 1 592.5351 446.5707)" class="st11 st12">0.0</text>
			<text transform="matrix(1 0 0 1 592.5351 327.3563)" class="st11 st12">0.8</text>
		</g>
		<line class="st9" x1="610.7" y1="444.9" x2="610.7" y2="325.7"/>
		<g>
			<g>
				<line class="st9" x1="610.7" y1="444.9" x2="613.1" y2="444.9"/>
				<line class="st13" x1="513.1" y1="269.6" x2="513.3" y2="269.6"/>
				<line class="st13" x1="513.2" y1="269.5" x2="513.2" y2="269.6"/>
				<line class="st13" x1="513.1" y1="269.6" x2="513.3" y2="269.6"/>
				<line class="st13" x1="513" y1="269.6" x2="513.2" y2="269.6"/>
				<line class="st13" x1="513.1" y1="269.6" x2="513.3" y2="269.6"/>
				<line class="st10" x1="732.7" y1="358.9" x2="733.7" y2="359.8"/>
			</g>
		</g>
	</g>
	<g>
		<g>
			<g>
				<rect x="673.2" y="381.3" class="st14" width="23.2" height="63.6"/>
			</g>
		</g>
		<g>
			<g>
				<rect x="647.4" y="339.6" class="st15" width="23.2" height="105.3"/>
			</g>
		</g>
		<g>
			<g>
				<rect x="621.7" y="393.2" class="st16" width="23.2" height="51.7"/>
			</g>
		</g>
	</g>
</g>
<text transform="matrix(0.9397 -0.342 0.342 0.9397 615.9218 464.6186)" class="st11 st17">cell 1</text>
<text transform="matrix(0.9397 -0.342 0.342 0.9397 671.3494 464.6181)" class="st11 st17">cell 3</text>
<text transform="matrix(0.9397 -0.342 0.342 0.9397 643.783 464.6176)" class="st11 st17">cell 2</text>
<text transform="matrix(1 0 0 1 598.2717 310.5917)" class="st11 st12">Capturing probabilities</text>
<g class="st18">
	<g>
		<g>
			<line class="st19" x1="289.2" y1="299.4" x2="290.9" y2="302"/>
			<line class="st19" x1="292.9" y1="298.6" x2="295.1" y2="303.9"/>
			<line class="st19" x1="296.8" y1="300.1" x2="298.2" y2="304.9"/>
			<line class="st19" x1="300.5" y1="302.5" x2="301" y2="304.8"/>
			<line class="st19" x1="306" y1="301.2" x2="306.4" y2="304"/>
			<line class="st19" x1="308.6" y1="297.5" x2="309" y2="303.2"/>
			<line class="st19" x1="311.6" y1="294.8" x2="311.7" y2="300.6"/>
			<line class="st19" x1="314.8" y1="294" x2="314.7" y2="297.6"/>
			<line class="st19" x1="318.1" y1="294.2" x2="318" y2="295.3"/>
			<line class="st19" x1="321.3" y1="294.6" x2="321" y2="296.1"/>
			<g>
				<path class="st20" d="M315.5,294.3l-0.1-0.6c0.3,0,0.5,0,0.8,0v0.6C315.9,294.3,315.7,294.3,315.5,294.3z"/>
			</g>
			<g>
				<path class="st20" d="M315.3,293.7c-4.3,0.1-6.3,2.7-8,5.1c-1.8,2.6-3.1,5-6.3,5.7c-1.6,0.4-3,0.2-4.3-0.3s-2.5-1.3-3.9-1.9
					c-1-0.5-2.1-0.8-3.4-0.8l0.5,0.6l0.3,0.4c0.6,0.1,1.3,0.3,1.9,0.5c1.5,0.5,2.8,1.3,4.2,1.8c1.4,0.5,3,0.7,4.9,0.2
					c3.8-0.9,5.4-3.5,7.2-6.1c1.7-2.4,3.5-4.6,7.1-4.7L315.3,293.7z"/>
			</g>
			<g>
				<path class="st21" d="M322.8,294.5c-0.1,0-0.3,0-0.4-0.1c-2.4-0.4-4.2,0.1-5.7,0.9s-2.6,2-3.6,3.3c-2,2.4-3.6,4.6-6.9,5
					s-5.4-1.4-7.9-3.1c-1.3-0.9-2.6-1.8-4.2-2.2c-1.6-0.4-3.7-0.4-6.1,1.2l0.4,0.5c1.9-1.3,3.7-1.3,5.1-1c1.5,0.4,2.7,1.1,3.9,2
					c1.3,0.9,2.6,1.9,4,2.5s3,1,4.9,0.7c3.9-0.5,5.7-3,7.8-5.4c2-2.3,4.3-4.5,8.2-3.8c0.1,0,0.3,0,0.4,0.1
					C322.7,294.9,322.7,294.7,322.8,294.5z"/>
			</g>
			<g>
				<path class="st20" d="M322.4,296.9c-1.3-1.6-3.2-3-6.2-3.2v0.6c3.1,0.2,4.8,1.9,6.1,3.8C322.2,297.7,322.3,297.3,322.4,296.9z"
					/>
			</g>
		</g>
	</g>
</g>
<g class="st18">
	<g>
		<g>
			<line class="st19" x1="286.7" y1="334" x2="288.4" y2="336.6"/>
			<line class="st19" x1="290.4" y1="333.2" x2="292.6" y2="338.5"/>
			<line class="st19" x1="294.3" y1="334.7" x2="295.8" y2="339.5"/>
			<line class="st19" x1="298" y1="337.1" x2="298.5" y2="339.4"/>
			<line class="st19" x1="303.5" y1="335.8" x2="303.9" y2="338.6"/>
			<line class="st19" x1="306.1" y1="332.2" x2="306.5" y2="337.8"/>
			<line class="st19" x1="309.1" y1="329.5" x2="309.2" y2="335.2"/>
			<line class="st19" x1="312.4" y1="328.6" x2="312.2" y2="332.2"/>
			<line class="st19" x1="315.6" y1="328.8" x2="315.5" y2="329.9"/>
			<line class="st19" x1="318.8" y1="329.2" x2="318.5" y2="330.7"/>
			<g>
				<path class="st20" d="M313,328.9l-0.1-0.6c0.3,0,0.5,0,0.8,0v0.6C313.4,328.9,313.2,328.9,313,328.9z"/>
			</g>
			<g>
				<path class="st20" d="M312.8,328.3c-4.3,0.1-6.3,2.7-8,5.1c-1.8,2.6-3.1,5-6.3,5.7c-1.6,0.4-3,0.2-4.3-0.3s-2.5-1.3-3.9-1.9
					c-1-0.5-2.1-0.8-3.4-0.8l0.5,0.6l0.3,0.4c0.6,0.1,1.3,0.3,1.9,0.5c1.5,0.5,2.8,1.3,4.2,1.8c1.4,0.5,3,0.7,4.9,0.2
					c3.8-0.9,5.4-3.5,7.2-6.1c1.7-2.4,3.5-4.6,7.1-4.7L312.8,328.3z"/>
			</g>
			<g>
				<path class="st21" d="M320.3,329.1c-0.1,0-0.3,0-0.4-0.1c-2.4-0.4-4.2,0.1-5.7,0.9s-2.6,2-3.6,3.3c-2,2.4-3.6,4.6-6.9,5
					s-5.4-1.4-7.9-3.1c-1.3-0.9-2.6-1.8-4.2-2.2c-1.6-0.4-3.7-0.4-6.1,1.2l0.4,0.5c1.9-1.3,3.7-1.3,5.1-1c1.5,0.4,2.7,1.1,3.9,2
					c1.3,0.9,2.6,1.9,4,2.5s3,1,4.9,0.7c3.9-0.5,5.7-3,7.8-5.4c2-2.3,4.3-4.5,8.2-3.8c0.1,0,0.3,0,0.4,0.1
					C320.2,329.5,320.2,329.3,320.3,329.1z"/>
			</g>
			<g>
				<path class="st20" d="M319.9,331.5c-1.3-1.6-3.2-3-6.2-3.2v0.6c3.1,0.2,4.8,1.9,6.1,3.8C319.7,332.3,319.8,331.9,319.9,331.5z"
					/>
			</g>
		</g>
	</g>
</g>
<g>
	<g>
		<g>
			<line class="st19" x1="266.9" y1="326" x2="269.8" y2="327.3"/>
			<line class="st19" x1="271.6" y1="322.2" x2="274.6" y2="327.1"/>
			<line class="st19" x1="276.3" y1="323" x2="278.3" y2="327.6"/>
			<line class="st19" x1="280.9" y1="324.6" x2="281.9" y2="326.7"/>
			<line class="st19" x1="287.4" y1="321.4" x2="288.6" y2="323.9"/>
			<line class="st19" x1="289.2" y1="316.8" x2="291.6" y2="321.9"/>
			<line class="st19" x1="291.2" y1="312.9" x2="293.8" y2="318.1"/>
			<line class="st19" x1="294" y1="310.5" x2="295.6" y2="313.7"/>
			<line class="st19" x1="297.1" y1="308.9" x2="297.6" y2="309.9"/>
			<line class="st19" x1="300.2" y1="307.3" x2="301" y2="308.7"/>
			<g>
				<path class="st20" d="M294.7,310.5l-0.4-0.5c0.2-0.1,0.5-0.3,0.8-0.4l0.3,0.6C295.1,310.3,294.9,310.4,294.7,310.5z"/>
			</g>
			<g>
				<path class="st20" d="M294.3,310c-4,2.3-5.1,5.5-6.2,8.5c-1.1,3.2-2.3,6.2-6.3,8c-2,0.9-3.8,1-5.4,0.8c-1.5-0.3-2.8-0.9-4.5-1
					c-1.2,0-2.6,0.5-3.6,1.8l0.8,0.2l0.5,0.1c0.5-0.5,1.1-0.9,1.8-1c0.8-0.2,1.6-0.1,2.3,0c0.7,0.2,1.4,0.4,2.2,0.5
					c0.4,0.1,0.8,0.1,1.2,0.2c0.5,0,1,0,1.5-0.1c1-0.1,2.2-0.5,3.4-1c4.9-2.1,6.1-5.5,7.3-8.8c1.1-3,2-5.8,5.4-7.8L294.3,310z"/>
			</g>
			<g>
				<path class="st21" d="M301.5,306.3c-0.1,0.1-0.3,0.1-0.4,0.2c-4.5,2.4-5.6,5.8-6.8,9.1c-1.1,3.2-2.1,6.2-6.2,8.1
					c-4,1.9-7,0.7-10.1-0.5c-0.8-0.3-1.5-0.6-2.4-0.9c-0.4-0.1-0.8-0.3-1.2-0.4c-0.4-0.1-0.9-0.2-1.4-0.2c-1,0-2.2,0.1-3.6,0.9
					c-0.4,0.2-0.7,0.5-1.1,0.8s-0.8,0.8-1.1,1.2c-0.6,0.8-1.1,1.9-1.4,3.1l0.6,0.1c0.4-1.8,1.4-3.2,2.6-4.1c1.2-0.8,2.2-1,3.1-1
					s1.7,0.1,2.5,0.4c0.7,0.2,1.5,0.5,2.2,0.9c3.2,1.3,6.6,2.6,11.4,0.4s6-5.7,7.1-9c1.1-3.2,2-6.2,5.8-8.2c0.1-0.1,0.3-0.1,0.4-0.2
					C301.7,306.7,301.6,306.5,301.5,306.3z"/>
			</g>
			<g>
				<path class="st20" d="M302.7,308.4c-2.2-0.4-4.7-0.3-7.6,1.2l0.3,0.6c3-1.5,5.5-1.3,8-0.6C303.1,309.2,302.9,308.8,302.7,308.4z
					"/>
			</g>
		</g>
	</g>
</g>
<g>
	<g>
		<g>
			<g>
				<line class="st19" x1="270.8" y1="347.5" x2="271.4" y2="350.6"/>
				<line class="st19" x1="274.2" y1="347.8" x2="275.4" y2="353.3"/>
				<line class="st19" x1="278" y1="349.7" x2="279.1" y2="354.6"/>
				<line class="st19" x1="281.9" y1="352.2" x2="282.4" y2="354.5"/>
				<line class="st19" x1="288.2" y1="350.7" x2="288.7" y2="353.5"/>
				<line class="st19" x1="290.9" y1="346.8" x2="291.8" y2="352.4"/>
				<line class="st19" x1="293.8" y1="343.7" x2="294.6" y2="349.4"/>
				<line class="st19" x1="297.1" y1="342.4" x2="297.5" y2="346"/>
				<line class="st19" x1="300.5" y1="342.1" x2="300.6" y2="343.2"/>
				<line class="st19" x1="303.9" y1="341.8" x2="304" y2="343.4"/>
				<g>
					<path class="st20" d="M297.8,342.7l-0.2-0.6c0.3,0,0.5-0.1,0.8-0.1l0.1,0.6C298.2,342.6,298,342.6,297.8,342.7z"/>
				</g>
				<g>
					<path class="st20" d="M297.6,342c-4.4,0.8-6.3,3.5-8,6.1c-1.8,2.7-3.3,5.3-7.2,6.1c-3.9,0.8-6.4-0.9-9-2.8
						c-1-0.7-1.9-1.3-3-1.9l0.2,0.8l0.1,0.5c0.5,0.4,1.1,0.7,1.6,1.1c2.7,1.9,5.6,3.9,10.2,2.9s6.4-3.8,8.2-6.6
						c1.7-2.5,3.4-5,7.1-5.6L297.6,342z"/>
				</g>
				<g>
					<path class="st21" d="M305.5,341.4c-0.1,0-0.3,0-0.4,0c-5.1,0.2-7.3,3.1-9.2,5.8c-1.9,2.6-3.5,5.1-7.4,5.8
						c-3.9,0.7-6.3-1.1-9-2.9c-2.6-1.9-5.4-3.7-9.8-2.9l0.1,0.6c3.6-0.6,6,1,8.5,2.8c2.7,1.9,5.5,3.9,10.1,3.1s6.5-3.6,8.4-6.3
						c1.9-2.6,3.8-5.1,8-5.3c0.1,0,0.3,0,0.5,0C305.5,341.9,305.5,341.6,305.5,341.4z"/>
				</g>
				<g>
					<path class="st20" d="M305.6,343.8c-1.8-1.3-4-2.2-7.2-1.9l0.1,0.6c3.2-0.3,5.4,1,7.2,2.6C305.6,344.7,305.6,344.3,305.6,343.8
						z"/>
				</g>
			</g>
			<g>
				<line class="st19" x1="306.5" y1="342" x2="306.6" y2="345.1"/>
				<line class="st19" x1="310" y1="342.9" x2="309.8" y2="348.6"/>
				<line class="st19" x1="313.3" y1="345.9" x2="312.5" y2="350.9"/>
				<line class="st19" x1="315.5" y1="349.9" x2="314.6" y2="352.1"/>
				<line class="st19" x1="320.3" y1="352.8" x2="318.3" y2="354.8"/>
				<line class="st19" x1="325" y1="353" x2="320.4" y2="356.3"/>
				<line class="st19" x1="329.1" y1="354.6" x2="324" y2="357.4"/>
				<line class="st19" x1="331.5" y1="357.6" x2="328.2" y2="359"/>
				<line class="st19" x1="332.8" y1="360.9" x2="331.8" y2="361.3"/>
				<line class="st19" x1="333.9" y1="364.2" x2="332.5" y2="364.6"/>
				<g>
					<path class="st20" d="M331.5,358.3l0.5-0.4c0.1,0.3,0.2,0.5,0.4,0.8l-0.6,0.2C331.7,358.8,331.6,358.6,331.5,358.3z"/>
				</g>
				<g>
					<path class="st20" d="M332,357.9c-1.1-2.2-2.5-3.5-4.1-4.4c-1.6-0.8-3.3-1.1-4.8-1.1c-1.6-0.1-3.1,0-4.5,0s-2.6-0.1-3.8-0.6
						c-1.2-0.5-2.3-1.2-3.3-2.2s-2.1-2.1-3.2-3.3c-0.8-0.9-1.6-1.7-2.6-2.4v0.8v0.5c0.5,0.5,0.9,0.9,1.4,1.4
						c1.1,1.2,2.3,2.4,3.5,3.5c1.2,1,2.5,1.8,3.9,2.3s2.7,0.8,4.2,0.9s3.1,0.1,4.8,0.2c3,0.2,6.2,1.2,7.9,4.8L332,357.9z"/>
				</g>
				<g>
					<path class="st21" d="M334.7,365.5c0-0.1-0.1-0.3-0.1-0.4c-0.8-2.3-2-3.9-3.4-5s-3.1-1.7-4.7-2.2c-1.5-0.5-3.1-0.8-4.4-1.3
						c-1.4-0.5-2.5-1.1-3.6-2.2s-1.7-2.1-2.2-3.3c-0.5-1.2-1-2.6-1.8-4.1c-0.8-1.4-1.9-2.8-3.4-3.8s-3.4-1.7-5.7-1.7v0.6
						c3.8,0.1,6.2,2.3,7.8,4.9c0.9,1.4,1.5,2.9,2.1,4.2c0.6,1.3,1.2,2.4,2.5,3.6s2.6,2,4,2.6c1.5,0.6,3.1,1,4.6,1.5
						c3.1,1,6,2.4,7.3,6.3c0,0.1,0.1,0.3,0.1,0.4C334.3,365.6,334.5,365.6,334.7,365.5z"/>
				</g>
				<g>
					<path class="st20" d="M332.4,366.3c0.8-2,1.2-4.3-0.1-7.5l-0.6,0.2c1.3,3.2,0.5,5.5-0.6,7.7C331.6,366.5,332,366.4,332.4,366.3
						z"/>
				</g>
			</g>
		</g>
	</g>
</g>
<g class="st18">
	<g>
		<g>
			<line class="st19" x1="311" y1="314.2" x2="310.9" y2="317.3"/>
			<line class="st19" x1="314.9" y1="315.4" x2="314.5" y2="321.1"/>
			<line class="st19" x1="318.6" y1="318.5" x2="317.9" y2="323.5"/>
			<line class="st19" x1="321.8" y1="322.3" x2="321.4" y2="324.6"/>
			<line class="st19" x1="329.2" y1="323.6" x2="328.5" y2="326.4"/>
			<line class="st19" x1="333.8" y1="321.4" x2="332.1" y2="326.8"/>
			<line class="st19" x1="338.6" y1="320.3" x2="336.3" y2="325.6"/>
			<line class="st19" x1="344.5" y1="323.4" x2="341.3" y2="325.2"/>
			<line class="st19" x1="345" y1="330.4" x2="343.9" y2="330.2"/>
			<line class="st19" x1="344.2" y1="334.3" x2="342.7" y2="334"/>
			<g>
				<path class="st20" d="M344.7,324.8c0.2-0.2,0.3-0.4,0.5-0.6c0.2,0.5,0.4,1.1,0.5,1.7l-0.6,0.2
					C344.9,325.6,344.8,325.2,344.7,324.8z"/>
			</g>
			<g>
				<path class="st20" d="M345.2,324.2c-0.9-2.2-2.8-3.5-4.6-3.8c-0.9-0.2-1.6-0.3-2.4-0.4c-0.4-0.1-0.6,0-0.8,0
					c-0.2,0-0.5,0.1-0.7,0.1c-1.9,0.3-3.4,1.1-5,1.8c-3.1,1.6-5.9,3.2-10.2,2.4c-4.4-0.7-6.4-3.1-8.8-5.7c-0.9-0.9-1.8-1.8-2.8-2.6
					v0.8v0.5c0.5,0.5,1,1,1.5,1.5c1.3,1.3,2.5,2.6,4,3.7s3.4,2,6,2.4c2.6,0.5,4.6,0.3,6.5-0.2c1.8-0.5,3.4-1.4,5-2.1
					c1.5-0.7,3-1.4,4.6-1.7c0.5,0,1.1,0,1.8,0c0.6,0.1,1.3,0.1,2,0.4c1.4,0.5,2.8,1.6,3.4,3.4C344.9,324.6,345,324.4,345.2,324.2z"
					/>
			</g>
			<g>
				<path class="st21" d="M344.2,336c0-0.2,0.1-0.3,0.1-0.5c0.3-1.4,0.4-2.6,0.3-3.7c0-0.3,0-0.5-0.1-0.8v-0.4V330
					c0-0.9-0.1-1.7-0.3-2.3c-0.4-1.4-1.2-2.3-2.2-2.8c-1-0.6-2.1-0.6-3.2-0.4c-1,0.2-1.8,0.6-2.5,0.9c-0.3,0.2-0.7,0.3-1.1,0.4
					s-0.8,0.2-1.2,0.3c-1.7,0.4-3.4,0.4-5.6-0.2c-4.3-1.1-6.1-3.7-8.3-6.4c-2.1-2.7-4.6-5.5-10.2-5.9v0.6c4.5,0.4,6.7,2.8,8.8,5.3
					c1.1,1.4,2.2,2.8,3.7,4s3.2,2.2,5.8,2.9c2.6,0.7,4.6,0.7,6.5,0.3c0.2,0,0.5-0.1,0.7-0.1s0.3-0.2,0.5-0.2
					c0.3-0.2,0.7-0.3,1.1-0.5c0.8-0.3,1.7-0.7,2.8-0.6c1,0,1.8,0.5,2.4,1.1s1.1,1.6,1.4,2.8c0.1,0.3,0.1,0.6,0.1,1
					c0,0.2,0,0.3,0.1,0.4l0.1,0.3c0.1,0.4,0.1,0.9,0.2,1.4c0.1,1,0,2-0.2,3.1c0,0.2-0.1,0.3-0.1,0.5C343.8,336,344,336,344.2,336z"
					/>
			</g>
			<g>
				<path class="st20" d="M341.8,335.6c0.9-0.8,1.7-1.8,2.4-3c0.3-0.6,0.6-1.2,0.9-2c0.4-1.4,0.8-3.1,0.5-4.8L345,326
					c0.2,1.6-0.2,3.2-0.6,4.5c-0.3,0.7-0.7,1.4-1.1,1.9c-0.8,1.1-1.8,2-2.8,2.9C341,335.4,341.4,335.5,341.8,335.6z"/>
			</g>
		</g>
	</g>
</g>
<path class="st22" d="M443.2,327.6"/>
<g>
	<g>
		<g>
			<line class="st19" x1="443" y1="323.8" x2="443.8" y2="326.8"/>
			<line class="st19" x1="446" y1="324.1" x2="446.9" y2="329.8"/>
			<line class="st19" x1="449" y1="326.5" x2="449.3" y2="331.5"/>
			<line class="st19" x1="451.4" y1="329.8" x2="451.3" y2="332.1"/>
			<line class="st19" x1="455.9" y1="330.1" x2="455.3" y2="332.8"/>
			<line class="st19" x1="459.2" y1="327.4" x2="457.4" y2="332.8"/>
			<line class="st19" x1="462.6" y1="325.9" x2="460.3" y2="331.2"/>
			<line class="st19" x1="465.6" y1="326.4" x2="463.9" y2="329.5"/>
			<line class="st19" x1="468.1" y1="327.9" x2="467.5" y2="328.8"/>
			<line class="st19" x1="470.4" y1="329.7" x2="469.4" y2="330.8"/>
			<g>
				<path class="st20" d="M465.9,326.9l0.2-0.6c0.2,0.1,0.4,0.2,0.6,0.3l-0.3,0.5C466.2,327.1,466.1,327,465.9,326.9z"/>
			</g>
			<g>
				<path class="st20" d="M466.1,326.3c-1.7-0.8-3.4-0.8-4.8-0.3s-2.6,1.3-3.7,2.2c-2.2,1.9-3.9,3.8-6.3,3.7c-1.2,0-2.2-0.5-3.1-1.3
					s-1.8-1.8-2.9-2.8c-0.8-0.7-1.6-1.4-2.5-1.9l0.2,0.8l0.1,0.5c0.5,0.4,0.9,0.7,1.4,1.1c0.5,0.5,1.1,1,1.6,1.5s1,0.9,1.6,1.4
					c1.1,0.8,2.1,1.4,3.6,1.4c1.4,0.1,2.6-0.4,3.7-1.1c1.1-0.8,2.2-1.7,3.4-2.7c1.1-0.8,2.2-1.6,3.4-2c0.6-0.2,1.3-0.3,2-0.3
					s1.4,0.2,2.1,0.5L466.1,326.3z"/>
			</g>
			<g>
				<path class="st21" d="M471.6,330.3l-0.3-0.3c-1.6-1.5-3.4-1.9-4.9-1.7c-1.6,0.1-3,0.8-4.3,1.6c-2.5,1.5-4.5,3-6.9,2.5
					s-3.5-2.8-5.2-5.1c-0.8-1.1-1.8-2.3-3.1-3.1c-1.3-0.8-2.9-1.1-4.9-0.7l0.2,0.6c3.2-0.7,5.3,1.3,7,3.5c0.9,1.2,1.7,2.4,2.6,3.4
					s1.9,1.7,3.3,2s2.6,0,3.9-0.5c1.2-0.5,2.5-1.3,3.8-2s2.6-1.3,4-1.4c0.7-0.1,1.4,0,2.1,0.2s1.4,0.6,2.1,1.2l0.3,0.2
					C471.4,330.6,471.5,330.4,471.6,330.3z"/>
			</g>
			<g>
				<path class="st20" d="M470,332.1c-0.1-1.9-0.9-4-3.3-5.4l-0.3,0.5c2.4,1.4,2.9,3.7,2.8,5.9C469.4,332.7,469.7,332.4,470,332.1z"
					/>
			</g>
		</g>
	</g>
</g>
<g class="st18">
	<g>
		<g>
			<line class="st19" x1="433.5" y1="322.7" x2="430.5" y2="323.3"/>
			<line class="st19" x1="433.2" y1="326" x2="427.5" y2="327"/>
			<line class="st19" x1="431" y1="329.6" x2="426" y2="330.2"/>
			<line class="st19" x1="427.9" y1="332.9" x2="425.6" y2="333"/>
			<line class="st19" x1="427.9" y1="338.7" x2="425.1" y2="338.2"/>
			<line class="st19" x1="430.4" y1="342.5" x2="425.1" y2="340.7"/>
			<line class="st19" x1="431.4" y1="346.7" x2="426.3" y2="344.1"/>
			<line class="st19" x1="430.6" y1="350.1" x2="427.5" y2="348.3"/>
			<line class="st19" x1="429.1" y1="352.8" x2="428.1" y2="352.3"/>
			<line class="st19" x1="427.5" y1="355.5" x2="426.2" y2="354.8"/>
			<g>
				<path class="st20" d="M430.1,350.5l0.6,0.2c-0.1,0.2-0.2,0.5-0.4,0.7l-0.6-0.3C429.9,350.8,430,350.6,430.1,350.5z"/>
			</g>
			<g>
				<path class="st20" d="M430.7,350.6c0.9-1.8,1.2-3.7,0.9-5.5c-0.2-1.7-1-3.2-1.9-4.5s-1.9-2.4-2.6-3.6s-1.2-2.4-1.3-4.1
					c-0.2-3.3,1.7-5.5,3.6-8c0.7-0.9,1.4-1.8,2-2.8l-0.8,0.2l-0.5,0.1c-0.4,0.5-0.8,1-1.1,1.5c-2,2.6-4,5.1-3.8,9.1
					c0.1,2,0.6,3.3,1.4,4.7c0.8,1.3,1.7,2.5,2.6,3.9c0.8,1.3,1.4,2.7,1.6,4.2s0,3.1-0.7,4.6L430.7,350.6z"/>
			</g>
			<g>
				<path class="st21" d="M427.1,356.9c0.1-0.1,0.1-0.2,0.2-0.3c2.3-4,1.2-7.2,0.1-10.3c-0.5-1.5-1.1-2.9-1.5-4.2
					c-0.4-1.3-0.6-2.5-0.3-4c0.5-3,2.5-4.8,4.8-7.1c2.2-2.2,4.3-5,3.6-9.3l-0.6,0.1c0.5,3.5-1.3,5.9-3.3,8.1
					c-1.1,1.2-2.3,2.4-3.2,3.6s-1.6,2.7-1.9,4.4c-0.3,1.8-0.1,3,0.3,4.5s0.9,3,1.5,4.6c1,3,2,5.8,0.1,9.1c-0.1,0.1-0.1,0.2-0.2,0.4
					C426.8,356.7,426.9,356.8,427.1,356.9z"/>
			</g>
			<g>
				<path class="st20" d="M425,355.7c2-0.7,3.9-1.9,5.3-4.4l-0.6-0.3c-1.5,2.6-3.6,3.5-5.9,4.1C424.2,355.3,424.6,355.5,425,355.7z"
					/>
			</g>
		</g>
	</g>
</g>
<g>
	<g>
		<g>
			<line class="st19" x1="481.6" y1="330.8" x2="479.2" y2="332.8"/>
			<line class="st19" x1="482.3" y1="333.1" x2="478.1" y2="337"/>
			<line class="st19" x1="482" y1="336.6" x2="478.5" y2="340.3"/>
			<line class="st19" x1="481.7" y1="340.7" x2="480.1" y2="342.5"/>
			<line class="st19" x1="485.7" y1="343.6" x2="484" y2="345.8"/>
			<line class="st19" x1="489.8" y1="342.8" x2="485.6" y2="346.5"/>
			<line class="st19" x1="493.8" y1="344.6" x2="488.3" y2="346.3"/>
			<line class="st19" x1="494.9" y1="349" x2="491.4" y2="348.3"/>
			<line class="st19" x1="493.4" y1="352.9" x2="492.4" y2="352.3"/>
			<line class="st19" x1="491.5" y1="355.5" x2="490.3" y2="354.5"/>
			<g>
				<path class="st20" d="M494.4,349.8h0.7c-0.1,0.4-0.2,0.8-0.3,1.1l-0.6-0.2C494.3,350.4,494.3,350.1,494.4,349.8z"/>
			</g>
			<g>
				<path class="st20" d="M495.1,349.7c0.4-1.6,0.1-3-0.4-4.1s-1.2-1.9-2.1-2.4c-0.8-0.5-1.6-0.7-2.4-0.7s-1.5,0.1-2.2,0.2
					c-1.4,0.3-2.7,0.8-3.9,0.9c-1.3,0.1-2.7-0.2-3.9-1.3c-2.5-2.2-2-5-1.3-7.8c0.2-1,0.5-2,0.7-3L479,332l-0.4,0.3
					c-0.1,0.5-0.3,1.1-0.5,1.7c-0.8,2.8-1.4,6.1,1.7,8.8c1.5,1.3,3.2,1.7,4.5,1.5c1.4-0.1,2.7-0.7,4.2-0.9c0.7-0.1,1.4-0.2,2.1,0
					c0.7,0.1,1.5,0.4,2.1,0.9c1.3,1,2.3,3,1.7,5.4H495.1z"/>
			</g>
			<g>
				<path class="st21" d="M490.9,356.6l0.2-0.2c1.4-1.5,2-3.5,1.9-5.3c-0.1-0.9-0.4-1.9-0.8-2.6c-0.5-0.7-1.1-1.3-1.7-1.6
					c-1.3-0.7-2.6-0.9-3.6-0.7c-1,0.1-1.7,0.1-2.7-0.7c-1-0.8-1.8-2-2-3.4c-0.2-1.3-0.1-2.7,0.1-4.2c0.4-2.9,1.1-5.6-0.6-7.9
					l-0.5,0.4c1.4,2,0.8,4.4,0.3,7.1c-0.2,1.5-0.4,3-0.1,4.5c0.1,0.7,0.4,1.5,0.9,2.1c0.5,0.7,1,1.3,1.6,1.8s1,0.7,1.5,0.7
					c0.2,0,0.4,0,0.7,0c0.2,0,0.4-0.1,0.7-0.1c1-0.1,2.5,0.2,3.6,1.1s1.9,2.4,2,3.9s-0.4,3.1-1.5,4.4l-0.2,0.2
					C490.6,356.3,490.7,356.5,490.9,356.6z"/>
			</g>
			<g>
				<path class="st20" d="M489.1,355c1,0,1.9-0.2,2.9-0.7c1-0.6,2-1.5,2.8-3.4l-0.6-0.2c-0.7,1.8-1.8,2.7-2.9,3.1
					c-1,0.4-2.1,0.5-3.2,0.4C488.4,354.4,488.8,354.7,489.1,355z"/>
			</g>
		</g>
	</g>
</g>
<g>
	<g>
		<g>
			<line class="st19" x1="442.2" y1="352" x2="444.2" y2="354.4"/>
			<line class="st19" x1="445" y1="351.2" x2="448" y2="356.1"/>
			<line class="st19" x1="448.5" y1="352.4" x2="450.6" y2="357"/>
			<line class="st19" x1="451.6" y1="354.7" x2="452.4" y2="357"/>
			<line class="st19" x1="455.5" y1="353.5" x2="455.9" y2="356.3"/>
			<line class="st19" x1="457.2" y1="349.8" x2="457.7" y2="355.5"/>
			<line class="st19" x1="459.4" y1="347.1" x2="459.6" y2="352.9"/>
			<line class="st19" x1="461.8" y1="346.2" x2="461.7" y2="349.8"/>
			<line class="st19" x1="464.1" y1="346.3" x2="464.1" y2="347.4"/>
			<line class="st19" x1="466.4" y1="346.4" x2="466.3" y2="347.9"/>
			<g>
				<path class="st20" d="M462.2,346.5l-0.1-0.6c0.2,0,0.4,0,0.6,0v0.6C462.5,346.5,462.4,346.5,462.2,346.5z"/>
			</g>
			<g>
				<path class="st20" d="M462.1,345.9c-3.1,0.2-4.7,2.8-5.8,5.2c-1.2,2.6-1.9,4.9-3.9,5.6c-1,0.4-1.9,0.1-3-0.3
					c-1-0.4-2.2-1.1-3.5-1.6c-0.9-0.4-1.9-0.7-3-0.9l0.5,0.6l0.4,0.4c0.6,0.1,1.1,0.3,1.6,0.5c1.3,0.5,2.6,1.2,3.7,1.6
					c1.2,0.4,2.2,0.6,3.4,0.2c2.3-0.8,3.2-3.4,4.5-6c1.1-2.4,2.6-4.6,5.2-4.8L462.1,345.9z"/>
			</g>
			<g>
				<path class="st21" d="M467.4,346.1h-0.3c-3.3-0.2-5.1,2.3-6.6,4.8c-1.5,2.4-2.6,4.7-4.8,5c-2.2,0.4-3.8-1.4-6.1-3.1
					c-1.1-0.8-2.4-1.6-3.8-1.9s-3-0.1-4.6,1.2l0.4,0.5c1.3-1,2.6-1.1,3.8-0.9c1.2,0.2,2.4,0.9,3.5,1.6c1.2,0.8,2.3,1.7,3.4,2.4
					c1.1,0.6,2.1,1,3.4,0.8c2.6-0.4,3.9-2.9,5.5-5.4c1.5-2.4,3.1-4.6,5.8-4.4c0.1,0,0.2,0,0.3,0
					C467.4,346.5,467.4,346.3,467.4,346.1z"/>
			</g>
			<g>
				<path class="st20" d="M467.3,348.5c-1-1.4-2.4-2.6-4.6-2.6v0.6c2.2,0.1,3.5,1.5,4.5,3.3C467.2,349.4,467.3,349,467.3,348.5z"/>
			</g>
		</g>
	</g>
</g>
<g>
	<g>
		<g>
			<line class="st19" x1="422.6" y1="315" x2="425.5" y2="316.1"/>
			<line class="st19" x1="427.3" y1="310.2" x2="431" y2="314.6"/>
			<line class="st19" x1="433.1" y1="309.7" x2="435.4" y2="314.2"/>
			<line class="st19" x1="438.7" y1="310.8" x2="439.6" y2="313"/>
			<line class="st19" x1="447.2" y1="307.4" x2="448" y2="310.1"/>
			<line class="st19" x1="450.6" y1="302.8" x2="452.2" y2="308.3"/>
			<line class="st19" x1="454.6" y1="299.1" x2="455.9" y2="304.7"/>
			<line class="st19" x1="459.1" y1="297.2" x2="459.8" y2="300.7"/>
			<line class="st19" x1="463.8" y1="296.3" x2="464" y2="297.4"/>
			<line class="st19" x1="468.6" y1="295.6" x2="468.8" y2="297.2"/>
			<g>
				<path class="st20" d="M460,297.3l-0.3-0.6c0.4-0.1,0.8-0.2,1.1-0.2l0.1,0.6C460.7,297.2,460.3,297.3,460,297.3z"/>
			</g>
			<g>
				<path class="st20" d="M459.7,296.8c-6.2,1.5-8.7,4.8-10.9,7.8c-2.3,3.2-4.2,6.1-9.3,8.2c-2.6,1.1-4.5,1.3-6.3,1.4
					s-3.5-0.1-5.4,0.4c-1.4,0.4-2.8,1.1-4,2.7l0.8,0.2l0.5,0.1c0.6-0.6,1.3-1.1,2-1.5c1.8-0.9,3.6-0.8,5.5-1s3.9-0.5,7-1.7
					c3-1.2,5.1-2.6,6.7-4.2c1.6-1.5,2.8-3.2,4-4.8c2.2-3,4.5-5.8,9.6-7L459.7,296.8z"/>
			</g>
			<g>
				<path class="st21" d="M470.7,295.1c-0.2,0-0.4,0-0.6,0.1c-3.5,0.4-6,1.4-8,2.7c-1.9,1.3-3.3,2.9-4.6,4.4c-2.5,3-4.7,5.8-9.9,7.5
					c-5.2,1.7-8.6,0.7-12.4-0.3c-1.9-0.5-3.9-0.9-6.3-0.4c-1.2,0.3-2.6,0.8-4,1.9c-0.7,0.6-1.4,1.3-2,2.2c-0.6,1-1.1,2.1-1.5,3.4
					l0.6,0.1c0.5-2,1.6-3.6,2.7-4.6s2.3-1.6,3.3-1.9c2.1-0.6,4-0.3,5.8,0c2,0.4,3.9,1,6.1,1.1s4.7-0.1,7.8-1.1
					c6.2-2,8.7-5.1,11.3-8.2c2.5-2.9,5.1-5.8,11-6.4c0.2,0,0.4,0,0.6-0.1C470.8,295.5,470.8,295.3,470.7,295.1z"/>
			</g>
			<g>
				<path class="st20" d="M471,297.5c-2.5-1.1-5.7-1.8-10.2-1l0.1,0.6c4.5-0.8,7.6,0.2,10.2,1.6C471.1,298.3,471.1,297.9,471,297.5z
					"/>
			</g>
		</g>
	</g>
</g>
<g class="st18">
	<g>
		<g>
			<line class="st19" x1="465.4" y1="304.9" x2="464.5" y2="307.9"/>
			<line class="st19" x1="468.2" y1="306.7" x2="466.6" y2="312.2"/>
			<line class="st19" x1="470.5" y1="310.2" x2="469" y2="315"/>
			<line class="st19" x1="472.5" y1="314.3" x2="471.8" y2="316.6"/>
			<line class="st19" x1="478.4" y1="316.3" x2="477.3" y2="318.9"/>
			<line class="st19" x1="482.8" y1="314.6" x2="480" y2="319.6"/>
			<line class="st19" x1="487.1" y1="314.3" x2="483.8" y2="319"/>
			<line class="st19" x1="490.6" y1="315.9" x2="488.2" y2="318.6"/>
			<line class="st19" x1="493.3" y1="318.8" x2="492.4" y2="319.5"/>
			<line class="st19" x1="495.5" y1="322.1" x2="494.2" y2="322.9"/>
			<g>
				<path class="st20" d="M490.9,316.7l0.3-0.6c0.2,0.2,0.5,0.4,0.7,0.7l-0.5,0.5C491.3,317,491.1,316.8,490.9,316.7z"/>
			</g>
			<g>
				<path class="st20" d="M491.2,316.1c-2-1.7-3.9-2.2-5.6-2.2s-3.3,0.5-4.7,1.1c-3,1.2-5.4,2.6-9,1.4s-4.9-3.9-6.2-6.8
					c-0.5-1-1-2.1-1.6-3.1l-0.2,0.8l-0.1,0.5c0.3,0.6,0.6,1.2,0.9,1.8c1.4,3,2.8,6,7.1,7.5c2.1,0.7,3.8,0.7,5.4,0.3
					c1.6-0.3,3.1-1,4.6-1.6c1.4-0.5,2.9-0.9,4.4-0.9s3.2,0.5,4.8,1.9L491.2,316.1z"/>
			</g>
			<g>
				<path class="st21" d="M496.7,323.7c-0.1-0.2-0.1-0.3-0.2-0.5c-1.4-2.8-3.3-4.2-5.1-4.8c-1.8-0.6-3.6-0.5-5.2-0.2s-3,0.7-4.4,0.8
					c-1.4,0.1-2.8,0-4.4-0.7c-3.2-1.4-4.4-4.1-5.7-7c-1.3-2.9-2.7-5.8-6.9-7.3l-0.2,0.6c3.4,1.2,4.7,3.9,5.9,6.6
					c0.7,1.5,1.4,3,2.4,4.4s2.3,2.5,4.2,3.3c1.9,0.8,3.4,1,5,0.9s3.1-0.5,4.8-0.7c1.6-0.2,3.2-0.3,4.8,0.3c1.6,0.5,3.2,1.7,4.3,4
					c0.1,0.2,0.1,0.3,0.2,0.5C496.3,323.9,496.5,323.8,496.7,323.7z"/>
			</g>
			<g>
				<path class="st20" d="M494.5,324.7c0.5-2.3,0-5.2-2.6-7.9l-0.5,0.5c1.3,1.3,2,2.8,2.2,4.1c0.2,1.4,0,2.7-0.4,3.9
					C493.7,325.1,494.1,324.9,494.5,324.7z"/>
			</g>
		</g>
	</g>
</g>
<g>
	<g>
		<g>
			<line class="st19" x1="372" y1="368.1" x2="370.4" y2="370.8"/>
			<line class="st19" x1="374.7" y1="370.5" x2="372.3" y2="375.7"/>
			<line class="st19" x1="377.2" y1="374.4" x2="375.4" y2="379.1"/>
			<line class="st19" x1="379.8" y1="378.8" x2="379" y2="381"/>
			<line class="st19" x1="387.1" y1="381.1" x2="386" y2="383.7"/>
			<line class="st19" x1="392" y1="379.7" x2="389.4" y2="384.7"/>
			<line class="st19" x1="396.9" y1="379.5" x2="393.8" y2="384.4"/>
			<line class="st19" x1="401" y1="381.2" x2="398.8" y2="384"/>
			<line class="st19" x1="404.8" y1="385.1" x2="403.9" y2="385.7"/>
			<line class="st19" x1="406.7" y1="391.5" x2="405.2" y2="391.5"/>
			<g>
				<path class="st20" d="M401.5,382l0.2-0.6c0.3,0.2,0.6,0.5,1,0.8l-0.4,0.5C402.1,382.4,401.8,382.2,401.5,382z"/>
			</g>
			<g>
				<path class="st20" d="M401.8,381.4c-1.3-1-2.5-1.5-3.5-1.8c-1.1-0.3-2.1-0.5-3.1-0.5c-2,0-3.7,0.4-5.3,0.9
					c-3.4,1-6.2,2.4-10.7,0.9c-4.6-1.5-6.4-4.7-7.6-8c-0.5-1.2-0.8-2.4-1.2-3.5l-0.4,0.7l-0.3,0.5c0.2,0.6,0.4,1.4,0.6,2
					c0.6,1.7,1.4,3.5,2.7,5.1s3.3,3,6,3.9s4.8,1,6.7,0.7c1.9-0.3,3.6-0.9,5.3-1.4c1.6-0.5,3.2-0.8,5-0.8c0.9,0,1.8,0.2,2.7,0.5
					c0.9,0.3,1.9,0.8,3,1.6L401.8,381.4z"/>
			</g>
			<g>
				<path class="st21" d="M406.4,395.1c0.1-0.3,0.2-0.7,0.3-1c0.4-1.5,0.4-2.8,0.2-4s-0.6-2.1-1.1-2.9s-1.1-1.5-1.6-2
					c-0.6-0.5-1.2-0.9-1.7-1.1c-2.3-1-4.2-0.7-6-0.5c-3.5,0.6-6.5,1.3-10.5-0.4c-4-1.6-5.8-4.5-7.5-7.6c-0.8-1.5-1.6-3.1-2.7-4.5
					c-1.1-1.5-2.4-2.8-4.2-4l-0.3,0.5c3,2,4.3,4.8,5.9,7.8c0.8,1.6,1.8,3.2,3.1,4.7c1.4,1.5,3.1,2.7,5.5,3.7s4.3,1.3,6.2,1.3
					c1.9,0,3.7-0.3,5.5-0.5c1.7-0.2,3.6-0.3,5.5,0.8c1,0.5,2,1.5,2.6,2.9c0.7,1.4,1.2,3.2,0.5,5.6c-0.1,0.3-0.2,0.6-0.3,1
					C406,394.9,406.2,395,406.4,395.1z"/>
			</g>
			<g>
				<path class="st20" d="M404.1,394.2c1.3-1.2,2.1-3.3,1.9-5.5c-0.1-1.1-0.4-2.3-1-3.5c-0.6-1.1-1.4-2.1-2.3-3l-0.4,0.5
					c0.9,0.9,1.7,1.9,2.2,3s0.7,2.2,0.7,3.3c0,2.1-1,3.9-2.3,4.8C403.3,393.9,403.7,394.1,404.1,394.2z"/>
			</g>
		</g>
	</g>
</g>
<g class="st18">
	<g>
		<g>
			<line class="st19" x1="396.2" y1="368.6" x2="395.3" y2="365.6"/>
			<line class="st19" x1="394.6" y1="368.2" x2="392.1" y2="363.1"/>
			<line class="st19" x1="391.8" y1="366.7" x2="389.1" y2="362.4"/>
			<line class="st19" x1="388.3" y1="365.1" x2="387" y2="363.1"/>
			<line class="st19" x1="385.1" y1="367.8" x2="383.3" y2="365.7"/>
			<line class="st19" x1="386.1" y1="371.6" x2="381.9" y2="367.8"/>
			<line class="st19" x1="387.2" y1="374.4" x2="382.3" y2="371.3"/>
			<line class="st19" x1="387.5" y1="375.9" x2="384.1" y2="374.5"/>
			<line class="st19" x1="387.1" y1="377" x2="386" y2="376.8"/>
			<line class="st19" x1="386.9" y1="378.2" x2="385.4" y2="378.1"/>
			<g>
				<path class="st20" d="M387.1,376l0.6,0.2c0,0.1,0,0.2-0.1,0.3l-0.6-0.2C387,376.2,387,376.1,387.1,376z"/>
			</g>
			<g>
				<path class="st20" d="M387.7,376.2c0.1-0.7-0.2-1.5-0.6-2.5s-0.9-2.2-1.3-3.5c-0.8-2.6-0.8-5.4,1.2-6.8c2.1-1.5,4.8-0.4,6.9,1.4
					c0.8,0.6,1.4,1.3,2,2l-0.2-0.8l-0.1-0.5c-0.3-0.4-0.7-0.8-1.1-1.1c-1-1-2.3-1.8-3.7-2.1s-2.9-0.2-4.1,0.7
					c-1.2,0.9-1.9,2.1-2.1,3.5s0.1,2.8,0.5,4.2c0.4,1.2,0.9,2.3,1.3,3.2c0.4,0.9,0.7,1.6,0.5,2.3L387.7,376.2z"/>
			</g>
			<g>
				<path class="st21" d="M387.2,378.7v-0.1c0-0.8-0.5-1.5-1.2-2.3c-0.7-0.9-1.7-1.9-2.4-3c-0.8-1.1-1.4-2.4-1.4-3.7
					c-0.1-1.3,0.4-2.6,1.5-3.6s2.3-1.1,3.4-0.8s2.3,0.8,3.5,1.5c2.4,1.3,4.6,2.7,5.9,2.6l-0.2-0.6c-1.2,0.1-3.1-1.3-5.4-2.5
					c-1.2-0.7-2.5-1.3-3.8-1.6c-1.3-0.2-2.6-0.1-4,1.1s-2,2.8-1.9,4.3s0.8,2.8,1.6,4c0.8,1.1,1.7,2,2.4,2.8s1.1,1.4,1.1,2.1v0.1
					C386.8,378.7,387,378.7,387.2,378.7z"/>
			</g>
			<g>
				<path class="st20" d="M384.8,378.7c1.4-0.8,2.5-1.3,2.8-2.3l-0.6-0.2c-0.4,1.1-1.8,1.5-3.5,2.5
					C383.9,378.7,384.4,378.7,384.8,378.7z"/>
			</g>
		</g>
	</g>
</g>
<g>
	<g>
		<g>
			<line class="st19" x1="374.5" y1="391.3" x2="373.9" y2="388.3"/>
			<line class="st19" x1="371.3" y1="391.2" x2="369.3" y2="385.9"/>
			<line class="st19" x1="367" y1="390.2" x2="364.6" y2="385.8"/>
			<line class="st19" x1="362" y1="389.5" x2="360.6" y2="387.6"/>
			<line class="st19" x1="356.2" y1="394.8" x2="354.2" y2="392.8"/>
			<line class="st19" x1="355.9" y1="399.9" x2="351.8" y2="395.9"/>
			<line class="st19" x1="355" y1="404.4" x2="350.9" y2="400.3"/>
			<line class="st19" x1="352.8" y1="407.8" x2="350.4" y2="405.2"/>
			<line class="st19" x1="349.7" y1="410.5" x2="349" y2="409.6"/>
			<line class="st19" x1="346.3" y1="413" x2="345.5" y2="411.7"/>
			<g>
				<path class="st20" d="M352,408.1l0.6,0.3c-0.2,0.2-0.5,0.5-0.7,0.7l-0.4-0.5C351.6,408.5,351.8,408.3,352,408.1z"/>
			</g>
			<g>
				<path class="st20" d="M352.6,408.4c3.7-3.8,3.6-7.3,3.7-10.6c0.1-1.7,0.1-3.4,0.7-5.1s1.6-3.4,3.8-4.9c2.1-1.5,4.2-2,6-2
					c1.9,0.1,3.5,0.7,5,1.5c1.1,0.6,2.1,1.3,3.1,1.9l-0.1-0.8l-0.1-0.5c-0.5-0.4-1.1-0.8-1.7-1.1c-1.5-1-3.3-1.7-5.5-1.8
					c-2.1-0.1-4.7,0.5-7.2,2.3s-3.8,3.8-4.5,5.7c-0.7,1.9-0.7,3.7-0.8,5.5c-0.1,3.3-0.1,6.4-3.2,9.5L352.6,408.4z"/>
			</g>
			<g>
				<path class="st21" d="M344.8,414.3c0.2-0.1,0.3-0.2,0.5-0.3c2.8-1.7,4.1-3.7,4.9-5.6c0.7-1.9,0.9-3.7,0.9-5.5
					c0.2-3.5,0.1-6.7,3.6-10c3.6-3.4,7.2-3.2,10.6-2.5c1.7,0.4,3.3,0.8,4.9,1.1c1.6,0.3,3.2,0.5,5.1,0.3l-0.1-0.6
					c-1.6,0.1-3-0.1-4.4-0.4s-2.9-0.8-4.5-1.2c-1.7-0.4-3.6-0.7-5.6-0.4c-2,0.3-4.2,1.3-6.4,3.4c-2.1,2-3.1,4-3.6,5.8
					c-0.5,1.9-0.5,3.6-0.6,5.4c-0.1,1.7-0.2,3.4-0.9,5.1c-0.7,1.7-1.9,3.3-4.1,4.7c-0.2,0.1-0.3,0.2-0.5,0.3
					C344.6,414,344.7,414.1,344.8,414.3z"/>
			</g>
			<g>
				<path class="st20" d="M343.6,412.3c2.5,0.1,5.4-0.6,8.3-3.2l-0.4-0.5c-2.9,2.6-5.9,3-8.6,2.5
					C343.1,411.5,343.3,411.9,343.6,412.3z"/>
			</g>
		</g>
	</g>
</g>
<g>
	<g>
		<g>
			<line class="st19" x1="410.2" y1="373.5" x2="408.9" y2="376.4"/>
			<line class="st19" x1="412.2" y1="375.6" x2="409.3" y2="380.6"/>
			<line class="st19" x1="412.8" y1="379.2" x2="409.8" y2="383.3"/>
			<line class="st19" x1="412.3" y1="383.2" x2="410.7" y2="384.9"/>
			<line class="st19" x1="415.2" y1="386" x2="412.9" y2="387.6"/>
			<line class="st19" x1="419.2" y1="386" x2="414.3" y2="388.8"/>
			<line class="st19" x1="422.7" y1="387.2" x2="417.3" y2="389.4"/>
			<line class="st19" x1="424.4" y1="389.2" x2="421" y2="390.4"/>
			<line class="st19" x1="425.1" y1="391.3" x2="424.1" y2="391.7"/>
			<line class="st19" x1="425.8" y1="392.9" x2="424.4" y2="393.6"/>
			<g>
				<path class="st20" d="M424.2,389.8l0.6-0.3c0.1,0.2,0.1,0.3,0.2,0.5l-0.6,0.2C424.3,390.1,424.3,389.9,424.2,389.8z"/>
			</g>
			<g>
				<path class="st20" d="M424.8,389.5c-0.6-1.4-1.7-2.5-3-3.1s-2.7-0.7-4.1-0.7s-2.7,0.1-3.9,0.1c-1.1-0.1-2.1-0.3-2.9-1
					c-1.6-1.4-1.2-3.8-1.5-6.6c-0.1-1-0.2-2-0.6-3l-0.3,0.7l-0.2,0.5c0.1,0.6,0.2,1.1,0.3,1.7c0.2,1.5,0.2,2.9,0.4,4.1
					c0.2,1.2,0.6,2.3,1.5,3.1c0.9,0.9,2,1.1,3.2,1.2s2.7,0,4.1,0.1c1.3,0,2.6,0.2,3.8,0.7c1.2,0.5,2.1,1.4,2.6,2.5L424.8,389.5z"/>
			</g>
			<g>
				<path class="st21" d="M426.4,393.4l-0.1-0.2c-0.5-0.9-1.4-1.7-2.6-2.3c-1.2-0.6-2.6-1-4.1-1.3c-1.4-0.3-2.7-0.5-3.8-0.8
					c-1.1-0.3-2-0.7-2.6-1.6s-0.7-1.8-0.6-3c0.1-1.1,0.4-2.4,0.5-3.9c0.2-1.4,0.2-2.9-0.2-4.2c-0.4-1.4-1.4-2.7-3.1-3.5l-0.2,0.6
					c2.8,1.4,3,4.2,2.8,6.9c-0.1,1.5-0.4,2.9-0.5,4.1c0,1.3,0.1,2.4,0.8,3.4c0.7,1,1.7,1.5,2.9,1.8c1.2,0.3,2.6,0.6,4,0.9
					c2.8,0.6,5.3,1.5,6.1,3.1c0,0.1,0.1,0.1,0.1,0.2C426,393.6,426.2,393.5,426.4,393.4z"/>
			</g>
			<g>
				<path class="st20" d="M424.3,394.6c0.8-1.5,1.4-2.6,0.7-4.6l-0.6,0.2c0.7,2-0.3,3.2-1.3,5.1C423.5,395,423.9,394.8,424.3,394.6z
					"/>
			</g>
		</g>
	</g>
</g>
<g>
	<g>
		<g>
			<line class="st19" x1="371.6" y1="408.5" x2="371.7" y2="411.7"/>
			<line class="st19" x1="375.4" y1="409.4" x2="375.5" y2="415.1"/>
			<line class="st19" x1="379.2" y1="412.1" x2="379.2" y2="417.1"/>
			<line class="st19" x1="382.8" y1="415.4" x2="382.8" y2="417.8"/>
			<line class="st19" x1="390.2" y1="415.4" x2="390.1" y2="418.2"/>
			<line class="st19" x1="394.1" y1="412.2" x2="393.7" y2="417.9"/>
			<line class="st19" x1="398.1" y1="410" x2="397.6" y2="415.7"/>
			<line class="st19" x1="402" y1="409.4" x2="401.6" y2="413"/>
			<line class="st19" x1="405.7" y1="409.9" x2="405.6" y2="410.9"/>
			<line class="st19" x1="409.5" y1="410.4" x2="409.3" y2="411.9"/>
			<g>
				<path class="st20" d="M402.7,409.8l-0.1-0.6c0.3,0,0.6,0,0.9,0.1l-0.1,0.6C403.2,409.9,402.9,409.8,402.7,409.8z"/>
			</g>
			<g>
				<path class="st20" d="M402.6,409.2c-5-0.3-7.7,2-10.2,4.1c-2.6,2.2-5,4.3-9.5,4.2c-4.5-0.1-6.7-2.3-9.3-4.6
					c-0.9-0.8-1.8-1.7-2.9-2.4v0.8v0.5c0.5,0.4,1.1,0.9,1.6,1.4c2.6,2.4,5.2,4.9,10.5,5s8-2.2,10.7-4.5c2.5-2.1,4.9-4,9.1-3.8
					L402.6,409.2z"/>
			</g>
			<g>
				<path class="st21" d="M411.3,410.3c-0.2,0-0.3,0-0.5-0.1c-5.5-0.8-8.5,1.5-11.3,3.6c-2.7,2.1-5.1,4.2-9.6,3.9
					c-4.4-0.2-6.7-2.5-9.1-4.9s-5-4.8-10.2-4.9v0.6c4.2,0.1,6.5,2.2,8.9,4.5c2.5,2.5,5.1,5,10.4,5.3s8.1-2,10.9-4.2
					c2.7-2.1,5.4-4.1,10-3.4c0.2,0,0.3,0,0.5,0.1C411.2,410.7,411.2,410.5,411.3,410.3z"/>
			</g>
			<g>
				<path class="st20" d="M410.9,412.7c-1.7-1.6-3.9-3-7.5-3.4l-0.1,0.6c3.6,0.4,5.7,2.1,7.4,4.1
					C410.8,413.5,410.9,413.1,410.9,412.7z"/>
			</g>
		</g>
	</g>
</g>
<g>
	<g>
		<g>
			<line class="st19" x1="368.6" y1="363.4" x2="366.5" y2="361"/>
			<line class="st19" x1="366.7" y1="364.4" x2="361.8" y2="361.4"/>
			<line class="st19" x1="362.8" y1="365.7" x2="358.4" y2="363.1"/>
			<line class="st19" x1="358.3" y1="366.8" x2="356.3" y2="365.6"/>
			<line class="st19" x1="355.5" y1="372.5" x2="353" y2="371.2"/>
			<line class="st19" x1="357.1" y1="376.9" x2="352.1" y2="374.3"/>
			<line class="st19" x1="357.9" y1="380.9" x2="352.8" y2="378.2"/>
			<line class="st19" x1="357.2" y1="384.2" x2="354" y2="382.5"/>
			<line class="st19" x1="355.8" y1="386.8" x2="354.8" y2="386.3"/>
			<line class="st19" x1="355.4" y1="387.8" x2="353.9" y2="387.8"/>
			<g>
				<path class="st20" d="M356.6,384.5l0.6,0.2c-0.1,0.2-0.2,0.5-0.3,0.7l-0.6-0.3C356.5,384.9,356.5,384.7,356.6,384.5z"/>
			</g>
			<g>
				<path class="st20" d="M357.3,384.7c1.7-3.8,0.6-6.8-0.5-9.6c-1.1-3-2.2-5.8-0.2-9.3s5-4.1,8.1-4.5c0.6-0.1,1.1-0.1,1.6,0
					s0.9,0.2,1.3,0.5l-0.4-0.7l-0.3-0.4c-0.5-0.2-1.1-0.4-1.8-0.4c-0.8,0-1.7,0.2-2.5,0.4c-0.8,0.2-1.6,0.5-2.4,0.8
					c-1.6,0.8-3,2-4.2,4c-2.3,4.2-1.1,7.4,0.1,10.4c1.1,2.8,2.1,5.5,0.6,8.6L357.3,384.7z"/>
			</g>
			<g>
				<path class="st21" d="M355.6,387.1c0,0.1,0.1,0.2,0.1,0.2c0.1,0.4,0,0.6,0,0.6c-0.1,0-0.1-0.2-0.2-0.5c-0.1-0.5-0.2-1.3-0.2-2.1
					c-0.2-1.7-0.8-3.2-1.3-4.8c-1.1-3-2.2-5.8-0.4-9.2c1.8-3.5,4.8-4.2,7.9-4.8c1.5-0.3,3.1-0.6,4.6-1.2c0.7-0.3,1.5-0.7,2.1-1.2
					c0.3-0.2,0.5-0.3,0.7-0.4c0.2,0,0.1,0.1,0.1,0.1l-0.4-0.5h-0.1h-0.1c-0.1,0-0.3,0.1-0.6,0.2c-0.5,0.2-1.2,0.6-1.8,0.9
					c-1.3,0.5-2.8,0.8-4.2,1.1c-3.2,0.6-6.6,1.4-8.8,5.6c-2.2,4.1-1,7.3,0.2,10.4c0.6,1.5,1.1,3,1.3,4.4c0.1,0.7,0.2,1.3,0.4,1.7
					c0.1,0.2,0.1,0.3,0.2,0.4c0.1,0,0.1-0.1,0-0.3c0,0,0-0.1-0.1-0.2C355.2,387.2,355.4,387.1,355.6,387.1z"/>
			</g>
			<g>
				<path class="st20" d="M353.4,388c0.6-0.4,1.2-0.2,1.7-0.4c0.5-0.3,1-0.8,1.8-2.2l-0.6-0.3c-0.8,1.5-1.4,1.9-2.1,2.3
					c-0.6,0.3-1.5,0.4-2.1,1.2C352.6,388.4,353,388.2,353.4,388z"/>
			</g>
		</g>
	</g>
</g>
<g>
	<g>
		<g>
			<line class="st19" x1="370.6" y1="392.5" x2="370.7" y2="395.7"/>
			<line class="st19" x1="373.6" y1="393.4" x2="373.8" y2="399.1"/>
			<line class="st19" x1="376.7" y1="396.1" x2="376.6" y2="401.1"/>
			<line class="st19" x1="379.5" y1="399.4" x2="379.4" y2="401.8"/>
			<line class="st19" x1="385.1" y1="399.7" x2="384.7" y2="402.4"/>
			<line class="st19" x1="388.6" y1="396.9" x2="387.3" y2="402.4"/>
			<line class="st19" x1="392.2" y1="395.1" x2="390.7" y2="400.7"/>
			<line class="st19" x1="394.7" y1="394.8" x2="394.2" y2="398.3"/>
			<line class="st19" x1="396.3" y1="394.8" x2="396.4" y2="395.9"/>
			<line class="st19" x1="397.1" y1="394.5" x2="397.9" y2="395.8"/>
			<g>
				<path class="st20" d="M395.1,395.2v-0.6c0.1,0,0.3,0,0.4,0v0.6C395.3,395.2,395.2,395.1,395.1,395.2z"/>
			</g>
			<g>
				<path class="st20" d="M395,394.5c-1.2,0-2.7,0.2-4.1,0.8c-1.5,0.5-2.8,1.4-3.9,2.4c-2.4,2-4.2,4-7.6,3.8
					c-3.4-0.1-5.2-2.3-7.2-4.6c-0.7-0.8-1.5-1.7-2.3-2.4v0.8v0.5c0.4,0.5,0.8,0.9,1.2,1.4c2.1,2.4,4.2,4.8,8.2,5
					c2,0.1,3.5-0.4,4.8-1.2c1.3-0.8,2.5-1.8,3.8-2.8c1.1-0.9,2.4-1.7,3.6-2.2s2.5-0.8,3.5-0.8V394.5z"/>
			</g>
			<g>
				<path class="st21" d="M396.9,394.3L396.9,394.3c0.1,0,0,0.2-0.2,0.5c-0.2,0.4-0.5,0.8-1,1.3c-0.8,1-2,2-3.2,3
					c-1.2,0.9-2.5,1.8-3.8,2.3s-2.5,0.8-4.1,0.6c-3.1-0.5-4.8-2.7-6.7-5.1c-1.9-2.4-4.1-4.8-8.1-4.9v0.6c3.3,0.1,5.2,2.2,7,4.5
					c2,2.5,3.9,5,7.6,5.5c1.9,0.3,3.2,0,4.8-0.6c1.5-0.5,3-1.5,4.2-2.5s2.1-2.1,2.8-3c0.7-0.9,1-1.7,1.1-1.8l0,0
					C397.2,394.6,397.1,394.4,396.9,394.3z"/>
			</g>
			<g>
				<path class="st20" d="M398.7,395.9c-0.8-0.2-1.3-0.6-1.7-0.9c-0.5-0.3-0.9-0.4-1.6-0.5v0.6c0.8,0,1.3,0.3,1.9,0.6
					c0.6,0.4,1.4,0.8,2.4,1C399.4,396.5,399.1,396.2,398.7,395.9z"/>
			</g>
		</g>
	</g>
</g>
<g>
	<ellipse class="st23" cx="304" cy="335.8" rx="44.9" ry="44.9"/>
</g>
<g>
	<circle class="st24" cx="460" cy="334.2" r="44.9"/>
</g>
<g>
	<circle class="st24" cx="385.4" cy="395.9" r="44.9"/>
</g>
<text transform="matrix(1 0 0 1 289.9479 373.3909)" class="st25 st11 st12">cell 1</text>
<text transform="matrix(1 0 0 1 446.0166 372.9325)" class="st26 st11 st12">cell 3</text>
<text transform="matrix(1 0 0 1 310.6889 469.2226)" class="st11 st12">Partially recovered fragments</text>
<text transform="matrix(1 0 0 1 371.3727 433.7152)" class="st27 st11 st12">cell 2</text>
<g>
	<circle class="st28" cx="70.4" cy="377.4" r="6.6"/>
	<circle class="st28" cx="79.1" cy="390.5" r="6.6"/>
	<circle class="st28" cx="108.3" cy="400.7" r="6.6"/>
	<circle class="st28" cx="120" cy="384.5" r="6.6"/>
	<circle class="st28" cx="129.6" cy="361.2" r="6.6"/>
	<circle class="st28" cx="46.5" cy="328.9" r="6.6"/>
	<circle class="st29" cx="108.3" cy="335.4" r="6.6"/>
	<circle class="st30" cx="98.6" cy="377.4" r="6.6"/>
	<circle class="st30" cx="87.1" cy="415.5" r="6.6"/>
	<circle class="st30" cx="55.2" cy="407.4" r="6.6"/>
	<circle class="st30" cx="59.2" cy="356.4" r="6.6"/>
	<circle class="st30" cx="100.4" cy="356.4" r="6.6"/>
	<circle class="st28" cx="77" cy="348.2" r="6.6"/>
	<text transform="matrix(1 0 0 1 35.967 436.3158)" class="st11 st12">Dissociated cells </text>
	<text transform="matrix(1 0 0 1 33.957 450.7158)" class="st11 st12">after tagmentation</text>
	<circle class="st28" cx="39.8" cy="358.5" r="6.6"/>
	<circle class="st30" cx="46.5" cy="384" r="6.6"/>
</g>
<line class="st31" x1="17.5" y1="269.5" x2="743.6" y2="269.5"/>
<g>
	<rect x="24.8" y="19.3" class="st32" width="209.2" height="23.5"/>
	<text transform="matrix(1 0 0 1 25.7971 34.0932)" class="st7 st33">Latent accessibility of cells</text>
</g>
<g>
	<rect x="24.8" y="276.2" class="st32" width="217.2" height="23.5"/>
	<text transform="matrix(1 0 0 1 25.797 290.931)" class="st7 st33">Sequencing reads capturing</text>
</g>
<g>
	<rect x="519.3" y="113.1" class="st34" width="161.4" height="51.2"/>
	<rect x="519.3" y="61.1" class="st35" width="161.4" height="52"/>
	<rect x="520.3" y="164.3" class="st36" width="161.4" height="36.6"/>
	<line class="st9" x1="519.3" y1="61.3" x2="519.3" y2="200.6"/>
	<line class="st9" x1="680.6" y1="61.1" x2="680.6" y2="200.6"/>
	<line class="st9" x1="519.3" y1="200.6" x2="680.6" y2="200.6"/>
	<text transform="matrix(1 0 0 1 472.6317 43.5931)" class="st11 st12">Tn5 insertion rate</text>
	<text transform="matrix(1 0 0 1 482.9717 57.9931)" class="st11 st12">(countinuous)</text>
	<text transform="matrix(1 0 0 1 621.9444 43.5933)" class="st11 st12">Paired insertion count </text>
	<text transform="matrix(1 0 0 1 659.3033 57.9933)" class="st11 st12">(integer)</text>
	<text transform="matrix(1 0 0 1 501.6662 115.0258)" class="st11 st12">λ</text>
	<text transform="matrix(1 0 0 1 508.3403 119.0217)" class="st11 st37">2</text>
	<text transform="matrix(1 0 0 1 501.6663 167.0149)" class="st11 st12">λ</text>
	<text transform="matrix(1 0 0 1 508.3403 171.011)" class="st11 st37">1</text>
	<g>
		<g>
			<line class="st38" x1="519.3" y1="164.3" x2="525.3" y2="164.3"/>
			<line class="st39" x1="536.8" y1="164.3" x2="668.9" y2="164.3"/>
			<line class="st38" x1="674.6" y1="164.3" x2="680.6" y2="164.3"/>
		</g>
	</g>
	<g>
		<g>
			<line class="st38" x1="519.3" y1="113.1" x2="525.3" y2="113.1"/>
			<line class="st39" x1="536.8" y1="113.1" x2="668.9" y2="113.1"/>
			<line class="st38" x1="674.6" y1="113.1" x2="680.6" y2="113.1"/>
		</g>
	</g>
	<text transform="matrix(1 0 0 1 686.759 183.7711)" class="st11 st12">0</text>
	<text transform="matrix(1 0 0 1 686.759 144.4402)" class="st11 st12">1</text>
	<text transform="matrix(1 0 0 1 686.759 95.1632)" class="st11 st12">2</text>
	<g>
		<path class="st40" d="M540.8,110.1c0,19.2,19,22.7,19,41.4s-19,18.7-19,37.5"/>
		<line class="st40" x1="538.8" y1="108.3" x2="538.8" y2="191"/>
	</g>
	<g>
		<path class="st40" d="M594.1,84c0,19.2,19,22.7,19,41.4s-19,18.7-19,37.5"/>
		<line class="st40" x1="592.1" y1="82.2" x2="592.1" y2="164.9"/>
	</g>
	<g>
		<path class="st40" d="M643.1,66.6c0,19.2,19,22.7,19,41.4s-19,18.7-19,37.5"/>
		<line class="st40" x1="641.1" y1="64.9" x2="641.1" y2="147.5"/>
	</g>
	<text transform="matrix(1 0 0 1 523.4906 213.4302)" class="st11 st12">group 1</text>
	<text transform="matrix(1 0 0 1 577.8396 213.43)" class="st11 st12">group 2</text>
	<text transform="matrix(1 0 0 1 632.1867 213.4303)" class="st11 st12">group 3</text>
</g>
<g>
	<g>
		<g>
			<line class="st5" x1="419.5" y1="148.7" x2="469" y2="148.7"/>
			<g>
				<polygon class="st6" points="466.3,130.7 477.7,148.7 466.3,166.7 466.2,166.7 466.2,130.7 				"/>
			</g>
		</g>
	</g>
</g>
<g>
	<rect x="339.5" y="30.1" class="st41" width="103.7" height="38.5"/>
	<text transform="matrix(1 0 0 1 372.4941 44.6973)" class="st11 st12">Nucleosome</text>
	<text transform="matrix(1 0 0 1 372.4939 59.0452)" class="st11 st12">Tn5 dimer</text>
	<circle class="st42" cx="359" cy="40.7" r="6.6"/>
	<g>
		<polygon class="st43" points="356,50.7 359,56.3 356,62 350,62 347,56.3 350,50.7 		"/>
		<polygon class="st43" points="368,50.7 371,56.3 368,62 362,62 359,56.3 362,50.7 		"/>
	</g>
</g>
<text transform="matrix(1 0 0 1 90.3305 242.2889)" class="st11 st12">Biological/experimental factors </text>
<text transform="matrix(1 0 0 1 93.6705 256.6889)" class="st11 st12">determine chromatin structure</text>
<text transform="matrix(1 0 0 1 315.0752 242.2891)" class="st11 st12">Chromatin structure determines </text>
<text transform="matrix(1 0 0 1 363.0852 256.6891)" class="st11 st12">insertion rates</text>
<g>
	<g>
		<g>
			<g>
				<g>
					<g>
						<line class="st44" x1="277.1" y1="128" x2="276.9" y2="133.6"/>
						<line class="st44" x1="282.7" y1="129.9" x2="282.5" y2="140"/>
						<line class="st44" x1="288.2" y1="134.7" x2="288.1" y2="143.6"/>
						<line class="st44" x1="293.8" y1="140.6" x2="293.7" y2="144.8"/>
						<line class="st44" x1="305.1" y1="140.3" x2="305.1" y2="145.2"/>
						<line class="st44" x1="310.8" y1="134.3" x2="310.8" y2="144.3"/>
						<line class="st44" x1="316.5" y1="129.7" x2="316.5" y2="139.9"/>
						<line class="st44" x1="322.1" y1="128.1" x2="322.1" y2="134.4"/>
						<line class="st44" x1="327.8" y1="128.1" x2="327.8" y2="130"/>
						<line class="st44" x1="333.4" y1="128.1" x2="333.4" y2="130.8"/>
						<g>
							<path class="st20" d="M323.2,128.7l-0.3-1.1c0.5,0,0.9-0.1,1.4-0.1v1.1C324,128.7,323.6,128.7,323.2,128.7z"/>
						</g>
						<g>
							<path class="st20" d="M323,127.6c-7.4,0.5-11.1,4.7-14.8,8.8c-3.8,4.2-7.4,8.1-14.4,8s-10.5-4.1-14.1-8.4
								c-1.3-1.5-2.6-3.1-4.2-4.5v1.4v0.9c0.8,0.8,1.5,1.7,2.3,2.6c3.8,4.4,7.7,9,16.1,9.1c8.3,0.1,12.4-4.4,16.3-8.7
								c3.6-4,7-7.7,13.1-8.1L323,127.6z"/>
						</g>
						<g>
							<path class="st21" d="M336,127.5c-0.2,0-0.5,0-0.7,0c-8.2,0.1-12.2,4.6-16.1,8.9c-3.8,4.2-7.4,8.2-14.3,8.1
								c-7-0.1-10.5-4.1-14.2-8.4c-3.7-4.2-7.4-8.6-15-9.1v1.1c6.2,0.5,9.6,4.4,13.1,8.4c3.8,4.4,7.8,9,16.1,9
								c8.3,0.1,12.4-4.4,16.3-8.8c3.8-4.2,7.3-8.2,14.2-8.2c0.2,0,0.5,0,0.7,0C336,128.2,336,127.8,336,127.5z"/>
						</g>
						<g>
							<path class="st20" d="M336,131.7c-2.9-2.4-6.4-4.2-11.7-4.2v1.1c5.4,0,8.7,2.4,11.8,5.4C336.1,133.3,336.1,132.5,336,131.7z"
								/>
						</g>
					</g>
					<g>
						<line class="st44" x1="337.5" y1="128.5" x2="337.6" y2="134"/>
						<line class="st44" x1="343.2" y1="130.1" x2="343.3" y2="140.2"/>
						<line class="st44" x1="348.9" y1="134.8" x2="349" y2="143.7"/>
						<line class="st44" x1="354.7" y1="140.5" x2="354.7" y2="144.7"/>
						<line class="st44" x1="366" y1="139.8" x2="366.1" y2="144.8"/>
						<line class="st44" x1="371.5" y1="133.6" x2="371.8" y2="143.6"/>
						<line class="st44" x1="377" y1="128.9" x2="377.3" y2="139.1"/>
						<line class="st44" x1="382.6" y1="127.1" x2="382.8" y2="133.4"/>
						<line class="st44" x1="388.2" y1="126.9" x2="388.3" y2="128.8"/>
						<line class="st44" x1="393.9" y1="126.7" x2="394" y2="129.4"/>
						<g>
							<path class="st20" d="M383.7,127.6l-0.3-1.1c0.4,0,0.9-0.1,1.4-0.1v1.1C384.5,127.6,384.1,127.6,383.7,127.6z"/>
						</g>
						<g>
							<path class="st20" d="M383.4,126.5c-7.3,0.7-11,5-14.5,9.2c-3.6,4.3-7.1,8.4-14.1,8.5s-10.6-3.8-14.4-8
								c-1.4-1.5-2.8-3-4.3-4.4v1.4v0.9c0.8,0.8,1.6,1.6,2.3,2.5c3.9,4.3,8,8.8,16.4,8.6c8.3-0.1,12.3-4.8,16-9.2
								c3.5-4.1,6.7-7.9,12.9-8.5L383.4,126.5z"/>
						</g>
						<g>
							<path class="st21" d="M396.4,126c-0.2,0-0.5,0-0.7,0c-8.2,0.3-12.1,4.9-15.8,9.4c-3.6,4.3-7.1,8.4-14,8.6
								c-7,0.2-10.6-3.8-14.4-7.9c-3.8-4.1-7.7-8.4-15.3-8.6v1.1c6.3,0.3,9.7,4,13.3,8c4,4.3,8.1,8.7,16.4,8.5s12.2-4.8,16-9.3
								c3.6-4.3,7-8.4,13.9-8.7c0.2,0,0.5,0,0.7,0C396.4,126.8,396.4,126.4,396.4,126z"/>
						</g>
						<g>
							<path class="st20" d="M396.6,130.3c-3-2.3-6.6-4-11.8-3.8v1.1c5.4-0.2,8.8,2.1,11.9,5C396.7,131.8,396.7,131,396.6,130.3z"/>
						</g>
					</g>
				</g>
			</g>
		</g>
		<ellipse class="st25" cx="305.1" cy="137.6" rx="10.6" ry="10.3"/>
		<ellipse class="st25" cx="352.4" cy="139.9" rx="10.6" ry="10.3"/>
		<g>
			<polygon class="st43" points="327.6,131.9 330.6,137.6 327.6,143.2 321.6,143.2 318.6,137.6 321.6,131.9 			"/>
			<polygon class="st43" points="339.6,131.9 342.6,137.6 339.6,143.2 333.6,143.2 330.6,137.6 333.6,131.9 			"/>
		</g>
		<g>
			<polygon class="st43" points="377.8,132.8 380.8,138.4 377.8,144.1 371.8,144.1 368.8,138.4 371.8,132.8 			"/>
			<polygon class="st43" points="389.7,132.8 392.7,138.4 389.7,144.1 383.7,144.1 380.8,138.4 383.7,132.8 			"/>
		</g>
	</g>
	<text transform="matrix(1 0 0 1 216.6402 140.9855)" class="st11 st12">group 2</text>
</g>
<g>
	<text transform="matrix(1 0 0 1 216.64 97.6261)" class="st11 st12">group 1</text>
	<g>
		<g>
			<g>
				<g>
					<g>
						<line class="st44" x1="274" y1="86.4" x2="273.9" y2="91.9"/>
						<line class="st44" x1="279.6" y1="88.2" x2="279.4" y2="98.3"/>
						<line class="st44" x1="285.2" y1="93" x2="285" y2="101.9"/>
						<line class="st44" x1="290.8" y1="98.9" x2="290.7" y2="103.1"/>
						<line class="st44" x1="302.1" y1="98.6" x2="302.1" y2="103.6"/>
						<line class="st44" x1="307.8" y1="92.6" x2="307.8" y2="102.6"/>
						<line class="st44" x1="313.5" y1="88" x2="313.4" y2="98.2"/>
						<line class="st44" x1="319.1" y1="86.4" x2="319.1" y2="92.8"/>
						<line class="st44" x1="324.7" y1="86.4" x2="324.7" y2="88.3"/>
						<line class="st44" x1="330.4" y1="86.4" x2="330.4" y2="89.1"/>
						<g>
							<path class="st20" d="M320.2,87l-0.3-1.1c0.5,0,0.9-0.1,1.4-0.1V87C320.9,87,320.6,87,320.2,87z"/>
						</g>
						<g>
							<path class="st20" d="M319.9,85.9c-7.4,0.5-11.1,4.7-14.8,8.8c-3.8,4.2-7.4,8.1-14.4,8s-10.5-4.2-14.1-8.4
								c-1.3-1.5-2.6-3.1-4.2-4.5v1.4v0.9c0.8,0.8,1.5,1.7,2.3,2.6c3.8,4.4,7.7,9,16.1,9.1c8.3,0.1,12.4-4.3,16.3-8.7
								c3.6-4,7-7.7,13.1-8.1L319.9,85.9z"/>
						</g>
						<g>
							<path class="st21" d="M332.9,85.8c-0.2,0-0.5,0-0.7,0c-8.2,0.1-12.2,4.6-16.1,8.9c-3.8,4.2-7.4,8.2-14.3,8.1
								c-7-0.1-10.5-4.1-14.2-8.3c-3.7-4.2-7.4-8.6-15-9.1v1.1c6.2,0.5,9.6,4.3,13.1,8.4c3.8,4.4,7.8,9,16.1,9
								c8.3,0.1,12.4-4.4,16.3-8.8c3.8-4.2,7.3-8.2,14.2-8.2c0.2,0,0.5,0,0.7,0C332.9,86.5,332.9,86.2,332.9,85.8z"/>
						</g>
						<g>
							<path class="st20" d="M333,90c-2.9-2.4-6.4-4.2-11.7-4.2V87c5.4,0,8.7,2.4,11.8,5.4C333,91.6,333,90.8,333,90z"/>
						</g>
					</g>
					<g>
						<line class="st44" x1="334.5" y1="86.8" x2="334.6" y2="92.3"/>
						<line class="st44" x1="340.2" y1="88.4" x2="340.3" y2="98.5"/>
						<line class="st44" x1="345.9" y1="93.1" x2="346" y2="102"/>
						<line class="st44" x1="351.6" y1="98.8" x2="351.7" y2="103"/>
						<line class="st44" x1="363" y1="98.1" x2="363.1" y2="103.1"/>
						<line class="st44" x1="368.5" y1="91.9" x2="368.7" y2="101.9"/>
						<line class="st44" x1="374" y1="87.2" x2="374.3" y2="97.4"/>
						<line class="st44" x1="379.6" y1="85.4" x2="379.8" y2="91.7"/>
						<line class="st44" x1="385.2" y1="85.2" x2="385.3" y2="87.1"/>
						<line class="st44" x1="390.8" y1="85" x2="390.9" y2="87.7"/>
						<g>
							<path class="st20" d="M380.7,86l-0.3-1.1c0.4,0,0.9-0.1,1.4-0.1v1.1C381.4,85.9,381,85.9,380.7,86z"/>
						</g>
						<g>
							<path class="st20" d="M380.4,84.8c-7.3,0.7-11,5-14.5,9.2c-3.6,4.3-7.1,8.4-14.1,8.5s-10.6-3.8-14.4-8
								c-1.4-1.5-2.8-3-4.3-4.3v1.4v0.9c0.8,0.8,1.6,1.7,2.3,2.5c3.9,4.3,8,8.8,16.4,8.6s12.3-4.8,16-9.2c3.5-4.1,6.7-7.9,12.9-8.5
								L380.4,84.8z"/>
						</g>
						<g>
							<path class="st21" d="M393.4,84.3c-0.2,0-0.5,0-0.7,0c-8.2,0.3-12.1,4.9-15.8,9.4c-3.6,4.3-7.1,8.4-14,8.6
								c-7,0.2-10.6-3.8-14.4-7.9s-7.7-8.4-15.3-8.6v1.1c6.3,0.3,9.7,4,13.3,8c4,4.3,8.1,8.7,16.4,8.5s12.2-4.8,16-9.3
								c3.6-4.3,7-8.4,13.9-8.7c0.2,0,0.5,0,0.7,0C393.4,85.1,393.4,84.7,393.4,84.3z"/>
						</g>
						<g>
							<path class="st20" d="M393.6,88.6c-3-2.3-6.6-4-11.8-3.8v1.1c5.4-0.2,8.8,2.1,11.9,5.1C393.7,90.1,393.6,89.4,393.6,88.6z"/>
						</g>
					</g>
				</g>
			</g>
		</g>
		<ellipse class="st25" cx="305.5" cy="96.6" rx="10.6" ry="10.3"/>
		<ellipse class="st25" cx="342.2" cy="94.9" rx="10.6" ry="10.3"/>
		<ellipse class="st25" cx="383.2" cy="94.1" rx="10.6" ry="10.3"/>
		<ellipse class="st25" cx="278" cy="94.9" rx="10.6" ry="10.3"/>
	</g>
</g>
<g>
	<g>
		<g>
			<g>
				<g>
					<g>
						<line class="st44" x1="276.6" y1="173.7" x2="276.5" y2="179.2"/>
						<line class="st44" x1="282.2" y1="175.5" x2="282" y2="185.6"/>
						<line class="st44" x1="287.7" y1="180.3" x2="287.6" y2="189.3"/>
						<line class="st44" x1="293.3" y1="186.3" x2="293.3" y2="190.5"/>
						<line class="st44" x1="304.7" y1="185.9" x2="304.6" y2="190.9"/>
						<line class="st44" x1="310.4" y1="179.9" x2="310.3" y2="189.9"/>
						<line class="st44" x1="316" y1="175.4" x2="316" y2="185.6"/>
						<line class="st44" x1="321.7" y1="173.7" x2="321.7" y2="180.1"/>
						<line class="st44" x1="327.3" y1="173.7" x2="327.3" y2="175.7"/>
						<line class="st44" x1="332.9" y1="173.7" x2="333" y2="176.4"/>
						<g>
							<path class="st20" d="M322.8,174.3l-0.3-1.1c0.5,0,0.9-0.1,1.4-0.1v1.1C323.5,174.3,323.1,174.3,322.8,174.3z"/>
						</g>
						<g>
							<path class="st20" d="M322.5,173.2c-7.4,0.5-11.1,4.7-14.8,8.8c-3.8,4.2-7.4,8.1-14.4,8s-10.5-4.1-14.1-8.4
								c-1.3-1.5-2.6-3.1-4.2-4.5v1.4v0.9c0.8,0.8,1.5,1.7,2.3,2.6c3.8,4.4,7.7,9,16.1,9.1c8.3,0.1,12.4-4.4,16.3-8.7
								c3.6-4,7-7.7,13.1-8.1L322.5,173.2z"/>
						</g>
						<g>
							<path class="st21" d="M335.5,173.1c-0.2,0-0.5,0-0.7,0c-8.2,0.1-12.2,4.6-16.1,8.9c-3.8,4.2-7.4,8.2-14.3,8.1
								c-7-0.1-10.5-4.1-14.2-8.4c-3.7-4.2-7.4-8.6-15-9.1v1.1c6.2,0.5,9.6,4.4,13.1,8.4c3.8,4.4,7.8,9,16.1,9
								c8.3,0.1,12.4-4.4,16.3-8.8c3.8-4.2,7.3-8.2,14.2-8.2c0.2,0,0.5,0,0.7,0C335.5,173.9,335.5,173.5,335.5,173.1z"/>
						</g>
						<g>
							<path class="st20" d="M335.6,177.4c-2.9-2.4-6.4-4.2-11.7-4.2v1.1c5.4,0,8.7,2.4,11.8,5.4
								C335.6,178.9,335.6,178.1,335.6,177.4z"/>
						</g>
					</g>
					<g>
						<line class="st44" x1="337.1" y1="174.1" x2="337.1" y2="179.6"/>
						<line class="st44" x1="342.7" y1="175.7" x2="342.8" y2="185.8"/>
						<line class="st44" x1="348.4" y1="180.4" x2="348.6" y2="189.3"/>
						<line class="st44" x1="354.2" y1="186.1" x2="354.3" y2="190.3"/>
						<line class="st44" x1="365.5" y1="185.4" x2="365.6" y2="190.4"/>
						<line class="st44" x1="371" y1="179.2" x2="371.3" y2="189.3"/>
						<line class="st44" x1="376.5" y1="174.5" x2="376.9" y2="184.7"/>
						<line class="st44" x1="382.1" y1="172.7" x2="382.3" y2="179.1"/>
						<line class="st44" x1="387.8" y1="172.5" x2="387.8" y2="174.5"/>
						<line class="st44" x1="393.4" y1="172.3" x2="393.5" y2="175"/>
						<g>
							<path class="st20" d="M383.2,173.3l-0.3-1.1c0.4,0,0.9-0.1,1.4-0.1v1.1C384,173.2,383.6,173.2,383.2,173.3z"/>
						</g>
						<g>
							<path class="st20" d="M382.9,172.2c-7.3,0.7-11,5-14.5,9.2c-3.6,4.3-7.1,8.4-14.1,8.5s-10.6-3.8-14.4-8
								c-1.4-1.5-2.8-3-4.3-4.4v1.4v0.9c0.8,0.8,1.6,1.6,2.3,2.5c3.9,4.3,8,8.8,16.4,8.6s12.3-4.8,16-9.2c3.5-4.1,6.7-7.9,12.9-8.5
								L382.9,172.2z"/>
						</g>
						<g>
							<path class="st21" d="M395.9,171.6c-0.2,0-0.5,0-0.7,0c-8.2,0.3-12.1,4.9-15.8,9.4c-3.6,4.3-7.1,8.4-14,8.6
								c-7,0.2-10.6-3.8-14.4-7.9c-3.8-4.1-7.7-8.4-15.3-8.6v1.1c6.3,0.3,9.7,4,13.3,8c4,4.3,8.1,8.7,16.4,8.5s12.2-4.8,16-9.3
								c3.6-4.3,7-8.4,13.9-8.7c0.2,0,0.5,0,0.7,0C395.9,172.4,395.9,172,395.9,171.6z"/>
						</g>
						<g>
							<path class="st20" d="M396.1,175.9c-3-2.3-6.6-4-11.8-3.8v1.1c5.4-0.2,8.8,2.1,11.9,5.1C396.2,177.5,396.2,176.7,396.1,175.9
								z"/>
						</g>
					</g>
				</g>
			</g>
		</g>
		<g>
			<polygon class="st43" points="384.3,170.3 387.2,175.9 384.3,181.6 378.3,181.6 375.3,175.9 378.3,170.3 			"/>
			<polygon class="st43" points="396.2,170.3 399.2,175.9 396.2,181.6 390.2,181.6 387.2,175.9 390.2,170.3 			"/>
		</g>
		<g>
			<polygon class="st43" points="282.9,178.3 285.9,184 282.9,189.7 277,189.7 274,184 277,178.3 			"/>
			<polygon class="st43" points="294.9,178.3 297.9,184 294.9,189.7 288.9,189.7 285.9,184 288.9,178.3 			"/>
		</g>
		<g>
			<polygon class="st43" points="340.9,182.6 343.9,188.2 340.9,193.9 335,193.9 332,188.2 335,182.6 			"/>
			<polygon class="st43" points="352.9,182.6 355.9,188.2 352.9,193.9 346.9,193.9 343.9,188.2 346.9,182.6 			"/>
		</g>
	</g>
	<text transform="matrix(1 0 0 1 216.64 184.345)" class="st11 st12">group 3</text>
</g>
<text transform="matrix(1 0 0 1 516.2184 242.2889)" class="st11 st12">scATAC-seq provides crude measure</text>
<text transform="matrix(1 0 0 1 558.2284 256.6889)" class="st11 st12">of latent insertion rate</text>
<text transform="matrix(1 0 0 1 64.5529 102.6038)" class="st11 st12">Cell types</text>
<text transform="matrix(1 0 0 1 30.3249 130.1601)" class="st11 st12">Developmental stages</text>
<text transform="matrix(1 0 0 1 45.9988 157.7171)" class="st11 st12">Spatial locations</text>
<text transform="matrix(1 0 0 1 47.871 185.274)" class="st11 st12">Sample batches</text>
<g>
	<g>
		<line class="st9" x1="124.5" y1="99.5" x2="205.5" y2="127.9"/>
		<g>
			<path d="M210,129.5c-2.4,0-5.6,0.5-7.7,1.3l2.6-3.1v-4.1C206,125.7,208.2,128,210,129.5z"/>
		</g>
	</g>
</g>
<g>
	<g>
		<line class="st9" x1="123.4" y1="100.7" x2="203.3" y2="160.2"/>
		<g>
			<path d="M207.2,163.1c-2.3-0.7-5.4-1.2-7.8-1l3.4-2.2l1.2-3.9C204.4,158.2,205.9,161,207.2,163.1z"/>
		</g>
	</g>
</g>
<g>
	<g>
		<line class="st9" x1="138.2" y1="159.1" x2="205.1" y2="103.9"/>
		<g>
			<path d="M208.9,100.8c-1.2,2.1-2.5,5-2.9,7.3l-1.4-3.8l-3.5-2.1C203.5,102.3,206.6,101.6,208.9,100.8z"/>
		</g>
	</g>
</g>
<g>
	<g>
		<line class="st9" x1="140.8" y1="160.8" x2="201.4" y2="140"/>
		<g>
			<path d="M206,138.4c-1.9,1.5-4.1,3.8-5.2,5.8l0.1-4.1l-2.5-3.1C200.4,137.9,203.5,138.4,206,138.4z"/>
		</g>
	</g>
</g>
<g>
	<g>
		<line class="st9" x1="143.3" y1="163.7" x2="200.1" y2="174.2"/>
		<g>
			<path d="M204.8,175c-2.4,0.4-5.4,1.3-7.4,2.5l2-3.5l-0.7-4C200.3,171.9,202.8,173.8,204.8,175z"/>
		</g>
	</g>
</g>
<g>
	<g>
		<line class="st9" x1="151.6" y1="127.6" x2="201.6" y2="100"/>
		<g>
			<path d="M205.9,97.6c-1.6,1.8-3.4,4.5-4.1,6.6l-0.6-4l-3-2.7C200.3,98.1,203.5,98,205.9,97.6z"/>
		</g>
	</g>
</g>
<g>
	<g>
		<line class="st9" x1="152.5" y1="131.8" x2="204.2" y2="132.7"/>
		<g>
			<path d="M209,132.8c-2.3,0.8-5.1,2.2-6.9,3.7l1.4-3.8l-1.3-3.8C204,130.4,206.8,131.9,209,132.8z"/>
		</g>
	</g>
</g>
<g>
	<g>
		<line class="st9" x1="149.3" y1="134.5" x2="200.6" y2="166.2"/>
		<g>
			<path d="M204.7,168.7c-2.4-0.5-5.5-0.7-7.8-0.4l3.2-2.5l0.8-4C201.5,164.1,203.2,166.8,204.7,168.7z"/>
		</g>
	</g>
</g>
<g>
	<g>
		<line class="st9" x1="136.3" y1="189.8" x2="202.5" y2="181.6"/>
		<g>
			<path d="M207.3,181c-2.1,1.1-4.8,2.9-6.3,4.6l0.9-3.9l-1.8-3.6C202,179.4,205,180.5,207.3,181z"/>
		</g>
	</g>
</g>
<g>
	<g>
		<line class="st9" x1="136.3" y1="189.8" x2="209.8" y2="108.1"/>
		<g>
			<path d="M213,104.5c-0.9,2.2-1.7,5.3-1.7,7.6l-1.9-3.6l-3.8-1.5C207.9,106.7,210.9,105.6,213,104.5z"/>
		</g>
	</g>
</g>
<g>
	<g>
		<line class="st9" x1="136.3" y1="189.8" x2="208.7" y2="143.6"/>
		<g>
			<path d="M212.7,141c-1.5,1.9-3.1,4.7-3.7,6.9l-0.9-3.9l-3.2-2.5C207.2,141.8,210.4,141.5,212.7,141z"/>
		</g>
	</g>
</g>
<g>
	<g>
		<line class="st9" x1="123" y1="98.8" x2="203.9" y2="93.7"/>
		<g>
			<path d="M208.7,93.4c-2.2,1-4.9,2.6-6.6,4.2l1.1-3.9l-1.6-3.7C203.5,91.4,206.4,92.7,208.7,93.4z"/>
		</g>
	</g>
</g>
<text transform="matrix(1 0 0 1 86.9236 212.8306)" class="st11 st12">...</text>
</svg>
